<svg width="470" height="430" xmlns="http://www.w3.org/2000/svg">

 <g>
  <title>Layer 1</title>
  <g id="freepik--background-complete--inject-2">
   <path id="svg_1" fill="#ebebeb" d="m438.32,163.72c-7,-12.46 -19.15,-23.14 -33.82,-25.09c-15.09,-2 -29.89,5.38 -41.73,14.55a126.21,126.21 0 0 0 -30,33.13c-4.63,7.46 -9.36,16.12 -18.07,18.55c-8.2,2.28 -16.82,-2 -23.43,-7.18s-12.55,-11.5 -20.52,-14.45c-20.76,-7.69 -43.92,10.75 -65.48,5.43c-18.57,-4.58 -27.46,-24 -39,-38.65c-19.06,-24.12 -52.18,-38.06 -83.36,-33s-54.91,57.47 -59.2,87.4l427.09,-0.14c-2.68,-13.92 -5.45,-28.1 -12.48,-40.55z"/>
   <path id="svg_2" fill="#f5f5f5" d="m104.35,55.61c0.38,-2.79 -3.55,-5.08 -6.51,-5.32a16.84,16.84 0 0 1 -4.21,-0.36c-2.89,-1 -4,-4.75 -6.87,-5.94c-2.11,-0.89 -4.54,-0.1 -6.58,0.93s-4.07,2.33 -6.36,2.47c-2,0.13 -4.15,-0.61 -5.89,0.36c-1.29,0.73 -2,2.22 -3.17,3.1a7.5,7.5 0 0 1 -4.14,1.15a11.78,11.78 0 0 0 -4.27,0.69a3.38,3.38 0 0 0 -2.14,3.43l50.14,-0.51z"/>
   <path id="svg_3" fill="#f5f5f5" d="m237.23,82.14c0.38,-2.79 -3.55,-5.08 -6.51,-5.32a16.84,16.84 0 0 1 -4.21,-0.36c-2.89,-1 -4,-4.75 -6.87,-5.94c-2.11,-0.89 -4.54,-0.1 -6.58,0.93s-4.07,2.33 -6.36,2.48c-2,0.12 -4.15,-0.61 -5.88,0.36c-1.3,0.72 -2,2.21 -3.17,3.1a7.61,7.61 0 0 1 -4.15,1.12a11.57,11.57 0 0 0 -4.27,0.7a3.38,3.38 0 0 0 -2.14,3.42l50.14,-0.49z"/>
   <path id="svg_4" fill="#ebebeb" d="m455.1,80.5c0.69,-5 -6.39,-9.15 -11.72,-9.58c-2.54,-0.2 -5.17,0.19 -7.58,-0.65c-5.21,-1.82 -7.29,-8.55 -12.38,-10.7c-3.8,-1.6 -8.17,-0.17 -11.86,1.68s-7.33,4.19 -11.44,4.46c-3.58,0.22 -7.47,-1.1 -10.61,0.65c-2.33,1.3 -3.55,4 -5.71,5.58s-4.85,1.88 -7.46,2s-5.32,0.17 -7.7,1.26s-4.34,3.6 -3.85,6.17l90.31,-0.87z"/>
   <path id="svg_5" fill="#ebebeb" d="m249.54,30.72c0.87,-6.35 -8.08,-11.57 -14.82,-12.11c-3.21,-0.26 -6.54,0.23 -9.58,-0.83c-6.59,-2.3 -9.22,-10.81 -15.65,-13.52c-4.81,-2 -10.34,-0.22 -15,2.12s-9.26,5.3 -14.49,5.62c-4.53,0.29 -9.45,-1.39 -13.41,0.83c-3,1.64 -4.5,5 -7.22,7s-6.13,2.38 -9.44,2.56s-6.72,0.21 -9.73,1.59s-5.49,4.56 -4.87,7.81l114.21,-1.07z"/>
  </g>
  <g id="freepik--Road--inject-2">
   <path id="svg_6" fill="#e0e0e0" d="m5.63,320.38l3.18,-29.17l181.43,11.87a15.59,15.59 0 0 0 16.47,-13.42l11.83,-85.66l41.13,0l17.79,87.61a15.58,15.58 0 0 0 16,12.47l170.44,-7.8l0,30.62l-149.65,25.5a26.08,26.08 0 0 0 -23.25,29.6l7,49.9l-105.49,0l4.27,-45.69a33.4,33.4 0 0 0 -27.95,-36.09l-163.2,-29.74z"/>
   <polygon id="svg_7" fill="#f5f5f5" points="246.95001220703125,282.95001220703125 237,282.95001220703125 239.36000061035156,240.23001098632812 243.67999267578125,240.239990234375 246.95001220703125,282.95001220703125 "/>
   <polygon id="svg_8" fill="#f5f5f5" points="250.52999877929688,381.54998779296875 237,381.54998779296875 239.41000366210938,328.6499938964844 246.80999755859375,328.6700134277344 250.52999877929688,381.54998779296875 "/>
   <polygon id="svg_9" fill="#f5f5f5" points="311.5199890136719,330.82000732421875 310.55999755859375,322.54998779296875 363.2799987792969,317.94000244140625 364.7099914550781,323.42999267578125 311.5199890136719,330.82000732421875 "/>
   <polygon id="svg_10" fill="#f5f5f5" points="418.3800048828125,319.45001220703125 417.42999267578125,311.17999267578125 463.8900146484375,307.1099853515625 463.8900146484375,313.1199951171875 418.3800048828125,319.45001220703125 "/>
   <polygon id="svg_11" fill="#f5f5f5" points="175.6300048828125,325.8900146484375 176.58999633789062,317.6199951171875 123.8699951171875,313 122.44000244140625,318.5 175.6300048828125,325.8900146484375 "/>
   <polygon id="svg_12" fill="#f5f5f5" points="58.81999969482422,313 59.58000183105469,306.3999938964844 7.870000839233398,299.79998779296875 7.209999084472656,305.8299865722656 58.81999969482422,313 "/>
  </g>
  <g id="freepik--Sign--inject-2">
   <path id="svg_13" fill="#263238" d="m307.72,285.19l-8.6,0l0,-260.8a4.3,4.3 0 0 1 4.3,-4.3l0,0a4.31,4.31 0 0 1 4.3,4.3l0,260.8z"/>
   <polygon id="svg_14" fill="#B0BEC5" points="262.6400146484375,129.89999389648438 286.4700012207031,127.69000244140625 345.3800048828125,159.39999389648438 341.44000244140625,166.7100067138672 334.010009765625,166.67999267578125 338.9599914550781,171.3300018310547 333.57000732421875,181.33999633789062 275.0400085449219,149.83999633789062 262.6400146484375,129.89999389648438 "/>
   <polygon id="svg_15" opacity="0.3" points="262.6400146484375,129.89999389648438 286.4700012207031,127.69000244140625 345.3800048828125,159.39999389648438 341.44000244140625,166.7100067138672 334.010009765625,166.67999267578125 338.9599914550781,171.3300018310547 333.57000732421875,181.33999633789062 275.0400085449219,149.83999633789062 262.6400146484375,129.89999389648438 "/>
   <path id="svg_16" fill="#B0BEC5" d="m261.91,126.87l16.82,-1.56a9.64,9.64 0 0 1 5.47,1.11l56.34,30.32l-3.94,7.32l-7.43,0l4.95,4.65l-5.39,10l-56.26,-30.28a9.69,9.69 0 0 1 -3.62,-3.4l-8.85,-14.28a2.54,2.54 0 0 1 1.91,-3.88z"/>
   <g id="svg_17" opacity="0.2">
    <path id="svg_18" d="m326.31,177.47a8.45,8.45 0 0 0 -1,-2.43a17.91,17.91 0 0 0 -5.26,-4.83a119.08,119.08 0 0 0 -20.77,-11.64c-4.27,-1.87 -8.47,-3.33 -12.25,-4.77a93.1,93.1 0 0 1 -9.89,-4.25a40.35,40.35 0 0 1 -6.16,-3.84c-0.69,-0.51 -1.18,-1 -1.53,-1.25a3.05,3.05 0 0 1 -0.5,-0.48s0.76,0.58 2.15,1.56a43.49,43.49 0 0 0 6.21,3.68a98.14,98.14 0 0 0 9.89,4.13c3.78,1.41 8,2.86 12.29,4.74a112.44,112.44 0 0 1 20.78,11.82a17.36,17.36 0 0 1 5.22,5a5.94,5.94 0 0 1 0.72,1.85a2.56,2.56 0 0 1 0.08,0.51c0.02,0.14 0.03,0.2 0.02,0.2z"/>
    <path id="svg_19" d="m263.91,127a7.65,7.65 0 0 0 -0.08,3.26a9.26,9.26 0 0 0 1.52,3.5a18.06,18.06 0 0 0 3.56,3.63a107.9,107.9 0 0 0 11,7.59c4.31,2.62 9.2,5.24 14.39,7.89l26.58,13.58c3.35,1.75 6.09,3.16 8,4.17l2.17,1.16a7,7 0 0 1 0.74,0.43a4.56,4.56 0 0 1 -0.79,-0.34l-2.21,-1.07l-8.11,-4l-26.6,-13.5c-5.19,-2.66 -10.09,-5.3 -14.4,-8a101.72,101.72 0 0 1 -11,-7.72a17.75,17.75 0 0 1 -3.57,-3.75a9.21,9.21 0 0 1 -1.48,-3.62a6.86,6.86 0 0 1 0,-2.48a4.44,4.44 0 0 1 0.28,-0.73z"/>
    <path id="svg_20" d="m287.07,137.89a4.92,4.92 0 0 1 -0.5,-0.71a21.76,21.76 0 0 0 -1.49,-2a20.9,20.9 0 0 0 -7.14,-5.41a14.23,14.23 0 0 0 -2.8,-1a5.35,5.35 0 0 0 -3.09,0.14a3.27,3.27 0 0 0 -2.12,2.31a4.57,4.57 0 0 0 1,3.29c2.88,4.15 7.45,7.53 12.51,10.4c1.27,0.72 2.54,1.43 3.8,2.07a9,9 0 0 0 3.9,1.12a4.19,4.19 0 0 0 3.4,-1.47a4.77,4.77 0 0 0 0.82,-3.51a9.55,9.55 0 0 0 -1.24,-3.38c-0.59,-1 -1.24,-2 -1.87,-2.93a33.82,33.82 0 0 0 -4,-4.77a28.74,28.74 0 0 0 -7.35,-5.21c-1,-0.47 -1.72,-0.8 -2.25,-1a7.21,7.21 0 0 1 -0.78,-0.35a5,5 0 0 1 0.82,0.25a23.48,23.48 0 0 1 2.3,0.93a27.48,27.48 0 0 1 7.51,5.13a33.2,33.2 0 0 1 4.12,4.78c0.64,0.93 1.3,1.9 1.91,3a10.05,10.05 0 0 1 1.32,3.53a5.27,5.27 0 0 1 -0.91,3.89a4.7,4.7 0 0 1 -3.79,1.67a9.36,9.36 0 0 1 -4.15,-1.16c-1.29,-0.65 -2.55,-1.36 -3.83,-2.08c-5.09,-2.88 -9.72,-6.31 -12.64,-10.58a5,5 0 0 1 -1,-3.65a3.71,3.71 0 0 1 2.41,-2.62a5.79,5.79 0 0 1 3.34,-0.13a14,14 0 0 1 2.86,1a19.74,19.74 0 0 1 8.57,7.64a7.52,7.52 0 0 1 0.36,0.81z"/>
    <path id="svg_21" d="m338.84,160.07c0,0.05 -0.81,-0.34 -2.34,-0.65a21,21 0 0 0 -6.59,0c-2.77,0.31 -6,1.17 -9.81,1.21a16.87,16.87 0 0 1 -5.81,-1a21.72,21.72 0 0 1 -5.56,-3a32.88,32.88 0 0 1 -8.1,-9a81.74,81.74 0 0 1 -4.64,-8.74c-1.21,-2.54 -2.2,-4.58 -2.94,-6l-0.84,-1.6a2.56,2.56 0 0 1 -0.27,-0.57a3.14,3.14 0 0 1 0.36,0.52c0.23,0.35 0.54,0.87 0.93,1.55c0.79,1.37 1.84,3.39 3.09,5.91a87.72,87.72 0 0 0 4.71,8.64a33.12,33.12 0 0 0 8,8.84a18.68,18.68 0 0 0 11.06,3.91c3.68,0 7,-0.82 9.77,-1.09a19.77,19.77 0 0 1 6.67,0.22a10.83,10.83 0 0 1 1.73,0.55a2.42,2.42 0 0 1 0.58,0.3z"/>
    <path id="svg_22" d="m318.21,150a3.61,3.61 0 0 1 -0.6,-0.22c-0.38,-0.16 -0.93,-0.41 -1.64,-0.77s-1.54,-0.82 -2.49,-1.42q-0.72,-0.44 -1.5,-1a4.43,4.43 0 0 1 -1.5,-1.41a1,1 0 0 1 0.12,-1.22a1.34,1.34 0 0 1 1.24,-0.22c0.78,0.21 1.51,0.47 2.3,0.74c1.56,0.55 3.21,1.21 4.9,2a52.93,52.93 0 0 1 5.16,2.74a6.58,6.58 0 0 1 2.41,2.07a2,2 0 0 1 -0.95,3a7.32,7.32 0 0 1 -3.25,0.36a19.48,19.48 0 0 1 -3.09,-0.4a21.12,21.12 0 0 1 -5.54,-1.95a20.83,20.83 0 0 1 -10.38,-12.47a14.32,14.32 0 0 1 -0.43,-1.76a2.67,2.67 0 0 1 -0.08,-0.63c0.05,0 0.21,0.85 0.71,2.33a22,22 0 0 0 3,5.84a20.74,20.74 0 0 0 7.37,6.26a21,21 0 0 0 5.42,1.88a19.94,19.94 0 0 0 3,0.38a6.69,6.69 0 0 0 3,-0.32a1.6,1.6 0 0 0 0.93,-1a1.54,1.54 0 0 0 -0.21,-1.29a6.16,6.16 0 0 0 -2.22,-1.91a56.85,56.85 0 0 0 -5.1,-2.74c-1.67,-0.79 -3.3,-1.46 -4.84,-2c-0.77,-0.28 -1.54,-0.56 -2.24,-0.75a1,1 0 0 0 -0.9,0.1a0.62,0.62 0 0 0 -0.06,0.77a4.13,4.13 0 0 0 1.38,1.31c0.5,0.38 1,0.71 1.45,1c0.93,0.61 1.76,1.1 2.44,1.48s1.22,0.67 1.59,0.86a2.63,2.63 0 0 1 0.6,0.36z"/>
   </g>
   <path id="svg_23" fill="#B0BEC5" d="m356,105.5l-0.13,-0.11l-16.85,-10l-66.74,-4.67l-0.58,8.28l6.3,4l-6.66,1.29l-0.8,11.34l62.52,4.37a14.11,14.11 0 0 0 7.12,-1.37l12.37,-6c2.6,-1.25 3.45,-4.15 3.45,-7.13z"/>
   <path id="svg_24" opacity="0.3" d="m356,105.5l-0.13,-0.11l-16.85,-10l-66.74,-4.67l-0.58,8.28l6.3,4l-6.66,1.29l-0.8,11.34l62.52,4.37a14.11,14.11 0 0 0 7.12,-1.37l12.37,-6a7.91,7.91 0 0 0 3.45,-7.13z"/>
   <path id="svg_25" fill="#B0BEC5" d="m355,104.16l-13.38,-10.31a9.64,9.64 0 0 0 -5.22,-2l-63.83,-4.47l-0.58,8.29l6.3,3.94l-6.66,1.29l-0.8,11.34l63.74,4.47a9.68,9.68 0 0 0 4.88,-0.94l15.11,-7.31a2.55,2.55 0 0 0 0.44,-4.3z"/>
   <g id="svg_26" opacity="0.2">
    <path id="svg_27" d="m273.49,112.53s0,-0.06 0.1,-0.15a3,3 0 0 1 0.34,-0.39a6.21,6.21 0 0 1 1.6,-1.17a17.14,17.14 0 0 1 7.1,-1.46a111.14,111.14 0 0 1 23.88,1.11c4.63,0.7 9,1.73 12.92,2.56a97.75,97.75 0 0 0 10.57,1.79a44.67,44.67 0 0 0 7.21,0.21c1.7,-0.09 2.64,-0.23 2.65,-0.17a3.45,3.45 0 0 1 -0.68,0.13a18.23,18.23 0 0 1 -2,0.24a39.91,39.91 0 0 1 -7.26,0a93.43,93.43 0 0 1 -10.63,-1.69c-4,-0.81 -8.3,-1.82 -12.9,-2.52a119.93,119.93 0 0 0 -23.78,-1.25a17.88,17.88 0 0 0 -7,1.27a8.35,8.35 0 0 0 -2.12,1.49z"/>
    <path id="svg_28" d="m353.22,103.17a3.92,3.92 0 0 1 -0.22,0.83a6.81,6.81 0 0 1 -1.3,2.11a9.52,9.52 0 0 1 -3.19,2.27a17.9,17.9 0 0 1 -5,1.26a100.26,100.26 0 0 1 -13.43,0.64c-5.05,-0.06 -10.6,-0.44 -16.41,-1l-29.71,-2.87l-9,-0.94l-2.45,-0.28a5,5 0 0 1 -0.84,-0.13a4.54,4.54 0 0 1 0.85,0l2.46,0.18l9,0.77l29.73,2.72c5.8,0.53 11.33,0.92 16.37,1a104.56,104.56 0 0 0 13.37,-0.52a18.25,18.25 0 0 0 5,-1.17a9.19,9.19 0 0 0 3.15,-2.14a7.66,7.66 0 0 0 1.62,-2.73z"/>
    <path id="svg_29" d="m327.81,100a6.69,6.69 0 0 1 0.75,-0.43a21.33,21.33 0 0 1 2.29,-0.95a20.51,20.51 0 0 1 9,-0.93a14.57,14.57 0 0 1 3,0.65a5.78,5.78 0 0 1 2.76,1.89a3.71,3.71 0 0 1 0.63,3.51a5,5 0 0 1 -2.82,2.53c-4.76,2 -10.5,2.47 -16.35,2.18c-1.47,-0.07 -2.91,-0.14 -4.34,-0.28a9.44,9.44 0 0 1 -4.12,-1.22a4.68,4.68 0 0 1 -2.31,-3.44a5.28,5.28 0 0 1 1.31,-3.77a9.92,9.92 0 0 1 3,-2.28c1.07,-0.56 2.14,-1 3.19,-1.48a33.32,33.32 0 0 1 6,-1.84a27.21,27.21 0 0 1 9.09,-0.32a21.69,21.69 0 0 1 2.44,0.44a5,5 0 0 1 0.84,0.23a7.29,7.29 0 0 1 -0.86,-0.13c-0.55,-0.1 -1.38,-0.23 -2.44,-0.34a28.6,28.6 0 0 0 -9,0.48a34.23,34.23 0 0 0 -5.94,1.88c-1,0.45 -2.1,0.93 -3.15,1.48a9.62,9.62 0 0 0 -2.85,2.19a4.79,4.79 0 0 0 -1.19,3.41a4.18,4.18 0 0 0 2.1,3.06a9,9 0 0 0 3.89,1.14c1.41,0.13 2.86,0.2 4.32,0.27c5.81,0.29 11.48,-0.13 16.12,-2.1a4.55,4.55 0 0 0 2.59,-2.25a3.25,3.25 0 0 0 -0.55,-3.09a5.35,5.35 0 0 0 -2.54,-1.77a13.37,13.37 0 0 0 -2.89,-0.66a20.87,20.87 0 0 0 -8.93,0.75c-1,0.32 -1.78,0.65 -2.3,0.86a5.18,5.18 0 0 1 -0.74,0.33z"/>
    <path id="svg_30" d="m272.2,91.12a2.49,2.49 0 0 1 0.63,0.06a10,10 0 0 1 1.76,0.46a19.71,19.71 0 0 1 5.75,3.37c2.23,1.73 4.57,4.17 7.68,6.15a18.67,18.67 0 0 0 11.44,2.6a33,33 0 0 0 11.54,-3.19a87.89,87.89 0 0 0 8.6,-4.79c2.4,-1.46 4.37,-2.61 5.76,-3.34c0.7,-0.37 1.25,-0.64 1.62,-0.81a2.63,2.63 0 0 1 0.59,-0.25a2.86,2.86 0 0 1 -0.54,0.34l-1.57,0.9c-1.36,0.78 -3.29,2 -5.66,3.48a82.21,82.21 0 0 1 -8.59,4.9a32.86,32.86 0 0 1 -11.67,3.28a21.47,21.47 0 0 1 -6.29,-0.45a16.8,16.8 0 0 1 -5.43,-2.26c-3.17,-2 -5.48,-4.52 -7.66,-6.27a20.64,20.64 0 0 0 -5.59,-3.47a22.49,22.49 0 0 0 -2.37,-0.71z"/>
    <path id="svg_31" d="m295,93.62a3.32,3.32 0 0 1 0.63,0c0.41,0 1,0.09 1.8,0.13s1.74,0.07 2.85,0.05c0.56,0 1.15,0 1.78,-0.08a4.33,4.33 0 0 0 1.86,-0.38a0.61,0.61 0 0 0 0.36,-0.68c-0.06,-0.26 -0.36,-0.45 -0.7,-0.57c-0.7,-0.21 -1.5,-0.38 -2.29,-0.56c-1.61,-0.35 -3.34,-0.65 -5.18,-0.88s-3.77,-0.36 -5.78,-0.4a6,6 0 0 0 -2.89,0.42a1.58,1.58 0 0 0 -0.87,1a1.6,1.6 0 0 0 0.27,1.31a6.75,6.75 0 0 0 2.37,1.87a19.14,19.14 0 0 0 2.76,1.29a21.31,21.31 0 0 0 5.58,1.32a20.86,20.86 0 0 0 9.58,-1.36a21.79,21.79 0 0 0 5.68,-3.32c1.22,-1 1.81,-1.62 1.84,-1.59s-0.12,0.18 -0.4,0.49a15.26,15.26 0 0 1 -1.25,1.32a20.75,20.75 0 0 1 -15.43,5a21.62,21.62 0 0 1 -5.73,-1.31a19.42,19.42 0 0 1 -2.82,-1.32a7,7 0 0 1 -2.55,-2a2.11,2.11 0 0 1 -0.34,-1.73a2.07,2.07 0 0 1 1.14,-1.31a6.5,6.5 0 0 1 3.13,-0.47a53.32,53.32 0 0 1 5.83,0.44c1.85,0.24 3.6,0.56 5.21,0.93c0.82,0.19 1.57,0.36 2.34,0.6a1.36,1.36 0 0 1 0.93,0.85a1,1 0 0 1 -0.54,1.1a4.52,4.52 0 0 1 -2,0.39c-0.64,0 -1.24,0 -1.8,0c-1.12,0 -2.08,-0.07 -2.86,-0.14s-1.39,-0.15 -1.8,-0.22a2.49,2.49 0 0 1 -0.71,-0.19z"/>
   </g>
   <polygon id="svg_32" fill="#B0BEC5" points="260.6000061035156,60.87000274658203 281,73.38999938964844 347.8500061035156,70.98999786376953 347.55999755859375,62.69000244140625 340.8800048828125,59.41999816894531 347.3699951171875,57.44000244140625 346.9599914550781,46.08000183105469 280.5400085449219,48.459999084472656 260.6000061035156,60.87000274658203 "/>
   <polygon id="svg_33" opacity="0.3" points="260.6000061035156,60.87000274658203 281,73.38999938964844 347.8500061035156,70.98999786376953 347.55999755859375,62.69000244140625 340.8800048828125,59.41999816894531 347.3699951171875,57.44000244140625 346.9599914550781,46.08000183105469 280.5400085449219,48.459999084472656 260.6000061035156,60.87000274658203 "/>
   <path id="svg_34" fill="#B0BEC5" d="m258.6,63.27l14.4,8.83a9.6,9.6 0 0 0 5.4,1.42l63.94,-2.29l-0.3,-8.3l-6.68,-3.26l6.49,-2l-0.4,-11.36l-63.85,2.3a9.65,9.65 0 0 0 -4.76,1.45l-14.25,8.87a2.55,2.55 0 0 0 0.01,4.34z"/>
   <g id="svg_35" opacity="0.2">
    <path id="svg_36" d="m338.74,46.34a0.53,0.53 0 0 1 -0.09,0.16a3,3 0 0 1 -0.29,0.42a6.46,6.46 0 0 1 -1.47,1.34a17.38,17.38 0 0 1 -6.9,2.2a111.7,111.7 0 0 1 -23.87,1.42c-4.68,-0.21 -9.1,-0.78 -13.12,-1.19a100.54,100.54 0 0 0 -10.7,-0.69a44.37,44.37 0 0 0 -7.19,0.55c-1.68,0.27 -2.6,0.51 -2.62,0.45a6.27,6.27 0 0 1 0.66,-0.2c0.44,-0.11 1.08,-0.3 1.92,-0.45a40.55,40.55 0 0 1 7.23,-0.72a93.76,93.76 0 0 1 10.75,0.55c4,0.39 8.44,0.94 13.09,1.15a119.32,119.32 0 0 0 23.79,-1.27a18,18 0 0 0 6.85,-2a8.82,8.82 0 0 0 1.96,-1.72z"/>
    <path id="svg_37" d="m260.44,64.07a3.4,3.4 0 0 1 0.13,-0.85a6.72,6.72 0 0 1 1.07,-2.23a9.39,9.39 0 0 1 2.93,-2.6a18.13,18.13 0 0 1 4.87,-1.79a102.55,102.55 0 0 1 13.27,-2c5,-0.47 10.6,-0.68 16.43,-0.77l29.86,-0.33l9.05,0l2.46,0a5.25,5.25 0 0 1 0.86,0a5.36,5.36 0 0 1 -0.86,0.07l-2.46,0.07l-9,0.19l-29.85,0.43c-5.83,0.09 -11.37,0.28 -16.39,0.73a107.37,107.37 0 0 0 -13.29,2.01a18.17,18.17 0 0 0 -4.81,1.69a9.27,9.27 0 0 0 -2.91,2.46a7.66,7.66 0 0 0 -1.36,2.92z"/>
    <path id="svg_38" d="m286,64.5a4.75,4.75 0 0 1 -0.7,0.51a18.62,18.62 0 0 1 -2.18,1.19a20.45,20.45 0 0 1 -8.88,1.88a14.87,14.87 0 0 1 -3,-0.33a5.74,5.74 0 0 1 -2.93,-1.59a3.72,3.72 0 0 1 -1,-3.43a5,5 0 0 1 2.54,-2.81c4.51,-2.53 10.18,-3.56 16,-3.9c1.47,-0.08 2.91,-0.16 4.35,-0.18a9.39,9.39 0 0 1 4.22,0.79a4.69,4.69 0 0 1 2.67,3.17a5.28,5.28 0 0 1 -0.91,3.89a10,10 0 0 1 -2.75,2.58c-1,0.68 -2,1.26 -3,1.81a33.36,33.36 0 0 1 -5.8,2.47a27.56,27.56 0 0 1 -9,1.28a22.77,22.77 0 0 1 -2.47,-0.18a4.32,4.32 0 0 1 -0.85,-0.14a6.18,6.18 0 0 1 0.86,0c0.56,0 1.39,0.09 2.46,0.09a28.78,28.78 0 0 0 8.89,-1.43a33,33 0 0 0 5.71,-2.5c1,-0.55 2,-1.14 3,-1.81a9.43,9.43 0 0 0 2.61,-2.47a4.83,4.83 0 0 0 0.82,-3.52a4.2,4.2 0 0 0 -2.41,-2.82a9,9 0 0 0 -4,-0.72c-1.41,0 -2.86,0.1 -4.32,0.18c-5.81,0.34 -11.4,1.35 -15.81,3.8a4.5,4.5 0 0 0 -2.34,2.51a3.26,3.26 0 0 0 0.88,3a5.38,5.38 0 0 0 2.71,1.5a13.71,13.71 0 0 0 2.94,0.35a21,21 0 0 0 8.8,-1.69a23.19,23.19 0 0 0 2.2,-1.1a6.31,6.31 0 0 1 0.69,-0.38z"/>
    <path id="svg_39" d="m342.28,67.5a3.37,3.37 0 0 1 -0.63,0a10.17,10.17 0 0 1 -1.8,-0.27a19.75,19.75 0 0 1 -6.08,-2.75c-2.4,-1.48 -5,-3.66 -8.28,-5.3a18.68,18.68 0 0 0 -11.65,-1.38a33.1,33.1 0 0 0 -11.09,4.39a88.49,88.49 0 0 0 -8.05,5.67c-2.23,1.71 -4.07,3.06 -5.38,3.93c-0.65,0.44 -1.17,0.77 -1.52,1a3.28,3.28 0 0 1 -0.56,0.31a3.22,3.22 0 0 1 0.5,-0.4l1.47,-1.06c1.27,-0.92 3.06,-2.31 5.26,-4.05a82.43,82.43 0 0 1 8,-5.79a33,33 0 0 1 11.25,-4.49a21.32,21.32 0 0 1 6.31,-0.22a17.06,17.06 0 0 1 5.64,1.68c3.36,1.7 5.92,3.92 8.27,5.42a21,21 0 0 0 5.96,2.81c1.51,0.44 2.39,0.44 2.38,0.5z"/>
    <path id="svg_40" d="m319.32,67.42a5.19,5.19 0 0 1 -0.63,0c-0.41,0 -1,0 -1.8,0.06s-1.74,0.12 -2.84,0.26c-0.55,0.07 -1.14,0.16 -1.76,0.27a4.19,4.19 0 0 0 -1.81,0.57a0.61,0.61 0 0 0 -0.29,0.71a1,1 0 0 0 0.76,0.49c0.71,0.14 1.53,0.23 2.34,0.32c1.63,0.18 3.39,0.3 5.23,0.32a55,55 0 0 0 5.8,-0.2a6.16,6.16 0 0 0 2.83,-0.72a1.6,1.6 0 0 0 0.76,-1.08a1.63,1.63 0 0 0 -0.41,-1.27a6.73,6.73 0 0 0 -2.55,-1.61a19.62,19.62 0 0 0 -2.88,-1a21.45,21.45 0 0 0 -5.69,-0.72a20.68,20.68 0 0 0 -9.38,2.37a21.62,21.62 0 0 0 -5.3,3.89c-1.1,1.11 -1.63,1.81 -1.67,1.78a3.51,3.51 0 0 1 0.36,-0.53a15.19,15.19 0 0 1 1.16,-1.39a20.85,20.85 0 0 1 14.82,-6.6a21.61,21.61 0 0 1 5.83,0.7a20.56,20.56 0 0 1 2.95,1a7.15,7.15 0 0 1 2.75,1.76a2.09,2.09 0 0 1 0.52,1.68a2,2 0 0 1 -1,1.43a6.66,6.66 0 0 1 -3.07,0.8a52.88,52.88 0 0 1 -5.84,0.17c-1.87,0 -3.64,-0.17 -5.28,-0.37c-0.83,-0.11 -1.6,-0.2 -2.39,-0.36a1.35,1.35 0 0 1 -1,-0.74a1,1 0 0 1 0.43,-1.15a4.42,4.42 0 0 1 2,-0.6c0.62,-0.1 1.22,-0.17 1.78,-0.23c1.11,-0.11 2.07,-0.16 2.86,-0.17s1.4,0 1.81,0a2.2,2.2 0 0 1 0.6,0.16z"/>
   </g>
  </g>
  <g id="freepik--Floor--inject-2">
   <path id="svg_41" fill="#263238" d="m433.7,204c0,0.14 -87.28,0.26 -194.92,0.26s-194.93,-0.17 -194.93,-0.26s87.26,-0.26 194.93,-0.26s194.92,0.06 194.92,0.26z"/>
  </g>
  <g id="freepik--Character--inject-2">
   <polygon id="svg_42" fill="#B0BEC5" points="132.6300048828125,397.8800048828125 131.25999450683594,430.3500061035156 113.72000122070312,429.95001220703125 115.03999328613281,397.4200134277344 132.6300048828125,397.8800048828125 "/>
   <path id="svg_43" fill="#263238" d="m122.65,428.93c-0.15,0 0.12,-7.12 0.6,-15.88s1,-15.86 1.14,-15.85s-0.12,7.12 -0.61,15.88s-0.99,15.86 -1.13,15.85z"/>
   <polygon id="svg_44" fill="#263238" points="131.35000610351562,428.1099853515625 113.81999969482422,427.6600036621094 113.72000122070312,429.95001220703125 131.25999450683594,430.3500061035156 131.35000610351562,428.1099853515625 "/>
   <path id="svg_45" fill="#263238" d="m114.14,419.56a2.47,2.47 0 0 1 0.49,-0.69a11.82,11.82 0 0 1 1.63,-1.6a12.26,12.26 0 0 1 2.92,-1.76a9.32,9.32 0 0 1 10.82,2.49a7.7,7.7 0 0 1 1.19,2a2.29,2.29 0 0 1 0.24,0.81a16.28,16.28 0 0 0 -1.72,-2.53a9.32,9.32 0 0 0 -6.43,-3a10.74,10.74 0 0 0 -6.79,2.29c-1.49,1.13 -2.28,2.05 -2.35,1.99z"/>
   <g id="svg_46" opacity="0.3">
    <polygon id="svg_47" points="114.66000366210938,406.67999267578125 114.5199966430664,410.260009765625 132.08999633789062,410.57000732421875 132.2100067138672,407.8800048828125 114.66000366210938,406.67999267578125 "/>
   </g>
   <path id="svg_48" fill="#B0BEC5" d="m173.9,399.82l-0.85,19.77s19.8,7.5 20,11.17l-38.37,-0.28l0.07,-30.85l19.15,0.19z"/>
   <path id="svg_49" fill="#e0e0e0" d="m161.45,417.91a1.57,1.57 0 0 0 -1.11,1.79a1.52,1.52 0 0 0 1.77,1.11a1.66,1.66 0 0 0 1.16,-1.9a1.56,1.56 0 0 0 -2,-1"/>
   <path id="svg_50" fill="#263238" d="m154.67,430.47l0,-3.08l37.14,1.4s1.71,0.76 1.51,2l-38.65,-0.32z"/>
   <path id="svg_51" fill="#263238" d="m173.39,419.71c0,0.19 -0.95,0.27 -1.88,0.87s-1.43,1.39 -1.61,1.31s0.12,-1.16 1.26,-1.87s2.28,-0.48 2.23,-0.31z"/>
   <path id="svg_52" fill="#263238" d="m177.44,421.42c0,0.18 -0.78,0.5 -1.43,1.29s-0.84,1.64 -1,1.63s-0.3,-1.08 0.53,-2s1.89,-1.1 1.9,-0.92z"/>
   <path id="svg_53" fill="#263238" d="m179.7,426.29c-0.17,0 -0.43,-0.91 0.07,-1.94s1.37,-1.43 1.45,-1.27s-0.47,0.7 -0.86,1.55s-0.47,1.64 -0.66,1.66z"/>
   <path id="svg_54" fill="#263238" d="m173.09,415.16c-0.08,0.17 -1,-0.1 -2,0s-1.91,0.39 -2,0.23s0.7,-0.83 2,-0.89s2.09,0.5 2,0.66z"/>
   <path id="svg_55" fill="#263238" d="m173.81,410.9a3.64,3.64 0 0 1 -1.94,0a8.93,8.93 0 0 1 -2,-0.64a8.09,8.09 0 0 1 -1.11,-0.6a2.41,2.41 0 0 1 -0.58,-0.46a0.82,0.82 0 0 1 -0.08,-1a1,1 0 0 1 0.83,-0.43a3,3 0 0 1 0.73,0.11a7.06,7.06 0 0 1 1.2,0.42a6.89,6.89 0 0 1 1.78,1.19c0.89,0.83 1.19,1.54 1.12,1.58s-0.52,-0.54 -1.42,-1.23a8.11,8.11 0 0 0 -1.72,-1a7.59,7.59 0 0 0 -1.11,-0.36c-0.41,-0.11 -0.76,-0.11 -0.86,0.07s0,0.1 0,0.22a1.7,1.7 0 0 0 0.42,0.33a9.86,9.86 0 0 0 1,0.59a10.92,10.92 0 0 0 1.87,0.74a13.63,13.63 0 0 1 1.87,0.47z"/>
   <path id="svg_56" fill="#263238" d="m173.56,411.17a3,3 0 0 1 -0.5,-1.87a6.23,6.23 0 0 1 0.28,-2.12a6.53,6.53 0 0 1 0.5,-1.17a1.61,1.61 0 0 1 1.25,-1a0.91,0.91 0 0 1 0.8,0.55a2.28,2.28 0 0 1 0.19,0.71a4.33,4.33 0 0 1 -0.85,3.29c-0.76,1 -1.55,1.22 -1.56,1.16s0.59,-0.46 1.18,-1.42a4.4,4.4 0 0 0 0.63,-1.81a4.23,4.23 0 0 0 0,-1.12c-0.06,-0.41 -0.21,-0.74 -0.37,-0.7s-0.52,0.3 -0.68,0.63a5.71,5.71 0 0 0 -0.48,1a6.88,6.88 0 0 0 -0.39,1.93c-0.09,1.21 0.1,1.91 0,1.94z"/>
   <g id="svg_57" opacity="0.3">
    <polygon id="svg_58" points="154.66000366210938,411.4800109863281 154.6999969482422,415.8699951171875 173.2100067138672,415.8699951171875 173.2100067138672,411.8900146484375 154.66000366210938,411.4800109863281 "/>
   </g>
   <polyline id="svg_59" fill="#263238" points="144.02000427246094,274.0299987792969 138.35000610351562,328.69000244140625 134.27999877929688,411 112.55999755859375,411 111.97000122070312,235.82000732421875 174.16000366210938,240.25 187.0500030517578,332.1600036621094 175.88999938964844,412.6099853515625 152.05999755859375,412.6099853515625 157.6300048828125,336.1199951171875 144.02000427246094,274.0299987792969 "/>
   <path id="svg_60" fill="#455a64" d="m144,274a32.39,32.39 0 0 0 4.23,4.17a33.08,33.08 0 0 0 4.58,3.77a31.94,31.94 0 0 0 -4.22,-4.17a32.8,32.8 0 0 0 -4.59,-3.77z"/>
   <path id="svg_61" fill="#455a64" d="m144.09,272.94a63.76,63.76 0 0 0 -0.12,-7a64.51,64.51 0 0 0 -0.4,-7a36.14,36.14 0 0 0 -0.14,7a36.54,36.54 0 0 0 0.66,7z"/>
   <path id="svg_62" fill="#455a64" d="m136.9,252.54a1.62,1.62 0 0 0 -0.35,0l-1.07,-0.06l-4.12,-0.2l-14.72,-0.62l-0.26,0l0,0.25c0,4.6 0,9.8 0,15.29l0,0.48l0.17,0.07l9.58,3.83l0.09,0l0.09,0l8.47,-2.94l0.13,-0.05l0,-0.14c0.62,-4.77 1.14,-8.74 1.51,-11.59c0.16,-1.33 0.29,-2.4 0.39,-3.19a9.42,9.42 0 0 0 0.1,-1.09a1.61,1.61 0 0 0 -0.06,0.31c0,0.24 -0.09,0.52 -0.15,0.86c-0.13,0.8 -0.3,1.88 -0.51,3.23c-0.42,2.8 -1,6.72 -1.72,11.41l0.15,-0.18l-8.49,2.88l0.18,0l-9.57,-3.86l0.17,0.25l0,-0.3c0,-5.49 0,-10.69 0,-15.29l-0.25,0.25l14.56,0.36l4.19,0.07l1.53,0l-0.04,-0.03z"/>
   <path id="svg_63" fill="#455a64" d="m168.26,252.8l-0.32,0l-1,0l-3.73,-0.11l-13.43,-0.32l-0.25,0l0,0.25c0.15,4.54 0.31,9.76 0.49,15.33l0,0.05l0.11,0.08l1.56,1l7.87,5.13l0.14,0.09l0.14,-0.08l8.87,-5.41l0.11,-0.07l0,-0.13c-0.17,-4.76 -0.31,-8.73 -0.41,-11.58c-0.05,-1.32 -0.1,-2.39 -0.13,-3.18s-0.07,-1.1 -0.08,-1.09a1.27,1.27 0 0 0 0,0.32l0,0.92c0,0.81 0,1.89 0,3.24c0,2.81 0.1,6.74 0.17,11.44l0.11,-0.19l-8.91,5.34l0.28,0l-7.85,-5.17l-1.55,-1l0.12,0.22c-0.2,-5.57 -0.39,-10.8 -0.56,-15.34l-0.24,0.25l13.29,0.07l4.79,0l0.41,-0.06z"/>
   <path id="svg_64" fill="#455a64" d="m118.68,277.56a13.94,13.94 0 0 0 2.95,-0.09c1.81,-0.13 4.31,-0.38 7.06,-0.74s5.23,-0.75 7,-1.08a14.91,14.91 0 0 0 2.87,-0.67a17.17,17.17 0 0 0 -2.93,0.29l-7,0.93l-7,0.89a17.76,17.76 0 0 0 -2.95,0.47z"/>
   <path id="svg_65" fill="#455a64" d="m119.19,338.49s0.09,0.31 0.51,0.69a3.47,3.47 0 0 0 2.22,0.75a5.21,5.21 0 0 0 3.25,-1.24a23.28,23.28 0 0 0 3,-3a41,41 0 0 0 4.39,-6.19a13.16,13.16 0 0 0 1.38,-2.83a29.82,29.82 0 0 0 -1.7,2.63a55.7,55.7 0 0 1 -4.48,6a25.26,25.26 0 0 1 -2.86,2.95a5,5 0 0 1 -2.94,1.25a3.44,3.44 0 0 1 -2.09,-0.54c-0.47,-0.24 -0.64,-0.5 -0.68,-0.47z"/>
   <path id="svg_66" fill="#455a64" d="m162.09,340.41s0,0.28 0.29,0.7a4.49,4.49 0 0 0 1.5,1.42a5.72,5.72 0 0 0 3,0.79a7.18,7.18 0 0 0 3.59,-1.14a12.74,12.74 0 0 0 4.32,-5.15a11,11 0 0 0 1.07,-2.56a19.37,19.37 0 0 0 -1.41,2.38a13.64,13.64 0 0 1 -4.27,4.87a6.82,6.82 0 0 1 -3.31,1.1a5.6,5.6 0 0 1 -2.78,-0.62a6.07,6.07 0 0 1 -2,-1.79z"/>
   <path id="svg_67" fill="#455a64" d="m160.7,332.16a5.4,5.4 0 0 0 1.79,1a13.94,13.94 0 0 0 4.86,1.08a14.12,14.12 0 0 0 5,-0.67a5.57,5.57 0 0 0 1.86,-0.89a22.76,22.76 0 0 1 -6.78,1a22.44,22.44 0 0 1 -6.73,-1.52z"/>
   <path id="svg_68" fill="#ffbe9d" d="m143.22,141.17l-23.43,-0.29l2.62,-19.26s-1.6,-0.33 -1.71,-8.71s-0.51,-22.62 -0.51,-22.62l0,0a31,31 0 0 1 30.31,3.71l1.29,1l-8.57,46.17z"/>
   <path id="svg_69" fill="#ffbe9d" d="m149.07,105.23c0.15,-0.06 6,-1.7 5.77,4s-6.11,4.36 -6.11,4.19s0.34,-8.19 0.34,-8.19z"/>
   <path id="svg_70" fill="#ffbe9d" d="m121.2,104c-0.15,-0.06 -5.43,-1.43 -5.25,4.29s6.11,4.37 6.12,4.2s-0.87,-8.49 -0.87,-8.49z"/>
   <path id="svg_71" fill="#263238" d="m151,104.59c-0.88,4.8 -0.71,7.32 -1.53,10.53c-1.3,5.07 -3.91,9 -8.64,11.5s-11.14,2.49 -15.2,-1c-2.83,-2.4 -4.83,-5.1 -5.25,-8.71s-0.83,-10 -0.86,-13.61c0,-6.54 -0.5,-12.79 -0.5,-12.79l19.35,-3.38l11,6.32l1.63,11.14z"/>
   <path id="svg_72" fill="#263238" d="m131,129.51a6.46,6.46 0 0 0 3.39,0.29a6.32,6.32 0 0 0 3.24,-1c0,-0.14 -1.48,0.29 -3.3,0.48s-3.28,0.08 -3.33,0.23z"/>
   <path id="svg_73" fill="#263238" d="m150.06,112.75c0.56,-4.92 0.93,-10.54 1.73,-15.73c0.3,-2 1,-4.75 0.84,-6.71a15.69,15.69 0 0 0 -1.28,-5.76a8.46,8.46 0 0 0 -5.88,-4.39a8.79,8.79 0 0 0 -7.18,1.85a6.56,6.56 0 0 0 -6.64,-2.54a6.31,6.31 0 0 0 -4.81,5.1a4.64,4.64 0 0 0 -5.28,-0.55a4.27,4.27 0 0 0 -1.92,4.77a4.33,4.33 0 0 0 -3.2,2.4a4.09,4.09 0 0 0 0.32,3.91c0.9,1.33 2.52,2.06 3.5,3.33a4.63,4.63 0 0 1 0.3,5.17"/>
   <path id="svg_74" fill="#455a64" d="m123.18,95a1.24,1.24 0 0 0 0.22,0.53a3.74,3.74 0 0 0 1.12,1.23a4.15,4.15 0 0 0 2.52,0.77a4.42,4.42 0 0 0 3.1,-1.41l-0.41,-0.11a3.94,3.94 0 0 0 2.59,2.87a4.77,4.77 0 0 0 4.36,-0.53a6.36,6.36 0 0 0 2.46,-3.11l-0.47,0.06a5.47,5.47 0 0 0 4.38,2.31a5.13,5.13 0 0 0 3.69,-1.45a4.88,4.88 0 0 0 1.33,-2.19a2.11,2.11 0 0 0 0.12,-0.91s-0.09,0.32 -0.29,0.86a5.27,5.27 0 0 1 -1.39,2a4.9,4.9 0 0 1 -3.44,1.25a5.11,5.11 0 0 1 -4,-2.16l-0.28,-0.43l-0.19,0.48a6,6 0 0 1 -2.26,2.85a4.25,4.25 0 0 1 -3.87,0.49a3.51,3.51 0 0 1 -2.32,-2.47l-0.08,-0.48l-0.33,0.37a4,4 0 0 1 -5.1,0.71a5.45,5.45 0 0 1 -1.46,-1.53z"/>
   <path id="svg_75" fill="#455a64" d="m123.22,92.71a5,5 0 0 1 0.82,-2.09a3.54,3.54 0 0 1 2,-1.32a3.81,3.81 0 0 1 2.95,0.54l0.47,0.33l-0.05,-0.56a4.12,4.12 0 0 1 0.2,-1.65a4.52,4.52 0 0 1 2.38,-2.67a4.74,4.74 0 0 1 3,-0.26a6.47,6.47 0 0 1 2.51,1.37s-0.11,-0.27 -0.48,-0.64a4.78,4.78 0 0 0 -1.93,-1.08a4.82,4.82 0 0 0 -6,3.12a4.57,4.57 0 0 0 -0.21,1.86l0.42,-0.24a4.24,4.24 0 0 0 -3.38,-0.56a3.76,3.76 0 0 0 -2.2,1.57a3.55,3.55 0 0 0 -0.6,1.65c0.01,0.41 0.07,0.63 0.1,0.63z"/>
   <path id="svg_76" fill="#455a64" d="m135.56,92.87c0.07,0 0,-0.32 0,-0.78a3.67,3.67 0 0 1 0.61,-1.7c0.39,-0.59 0.85,-1.19 1.12,-1.52s0.57,-0.08 0.62,-0.11s0,-0.13 -0.13,-0.23a0.68,0.68 0 0 0 -0.73,0.05a4.17,4.17 0 0 0 -0.67,0.66a7.48,7.48 0 0 0 -0.68,0.88a3.13,3.13 0 0 0 -0.52,2c0.08,0.52 0.32,0.78 0.38,0.75z"/>
   <path id="svg_77" fill="#455a64" d="m147,85.67c0.06,0 0,-0.45 -0.36,-1a2.71,2.71 0 0 0 -0.89,-0.9a2.35,2.35 0 0 0 -1.57,-0.33a3.76,3.76 0 0 0 -2.35,1.42c-0.43,0.53 -0.63,0.89 -0.58,0.93s0.38,-0.24 0.86,-0.68a4.15,4.15 0 0 1 2.14,-1.16a2.28,2.28 0 0 1 2.07,0.93c0.45,0.45 0.68,0.82 0.68,0.79z"/>
   <path id="svg_78" fill="#455a64" d="m144,110a12.41,12.41 0 0 0 2.77,-7.75c-0.16,0 -0.47,1.8 -1.23,3.93s-1.65,3.7 -1.54,3.82z"/>
   <path id="svg_79" fill="#455a64" d="m141.43,111.34a6.92,6.92 0 0 0 1.43,-2.61a6.78,6.78 0 0 0 0.71,-2.87a10.81,10.81 0 0 0 -1.21,2.69a10.09,10.09 0 0 0 -0.93,2.79z"/>
   <path id="svg_80" fill="#455a64" d="m125.12,111.73a8.72,8.72 0 0 0 0.67,5a9,9 0 0 0 3,4.2a30.7,30.7 0 0 1 -2.44,-4.38a30.75,30.75 0 0 1 -1.23,-4.82z"/>
   <path id="svg_81" fill="#455a64" d="m122.52,107.55a7.08,7.08 0 0 0 -0.38,4.53a7.22,7.22 0 0 0 2,4.12a25.92,25.92 0 0 1 -1.47,-4.21a24.64,24.64 0 0 1 -0.15,-4.44z"/>
   <path id="svg_82" fill="#B0BEC5" d="m91.19,187.73l0,24s18,39.78 18,39.17s6.43,-25.11 6.43,-25.11l-7.24,-19.11l-0.68,-12.48l-14.86,-29.72s-3.69,20 -3.09,21.2a8,8 0 0 0 1.44,2.05z"/>
   <path id="svg_83" fill="#B0BEC5" d="m113.61,140.07s-16.36,8.49 -18.38,11.11s-2.42,13.33 -2.42,13.33l20.8,41.6l1,16.76s-6.26,13.05 -6.26,22.17l0,1l-1,12.52l25,2.22s1.42,-6.87 1.42,-6.26s1.82,6.26 1.82,6.26l41.41,0l-1.53,-27.57l-7.05,-42.56s3,-24.41 3.15,-25.3c0.26,-1.58 26.48,-13.21 26.48,-13.21l12.35,-6.67a10,10 0 0 0 5.22,-8.76l0,0a10,10 0 0 0 -5.54,-8.92l-34.85,-17.25l-8.11,13.64l10.62,6.82l7.61,5.27l-21.11,2s-3.75,-4.9 -5.36,-4.9s-14.54,3 -14.54,3l0.2,-3.23s-3.43,-3.84 -7.27,-3.64s-20,4.85 -20,4.85l-3.66,5.72z"/>
   <path id="svg_84" fill="#ffbe9d" d="m172.32,115.43l0,0l-9.09,-5.29l-13.83,-7.5s-4.56,-3.46 -6.36,-3.36a5.52,5.52 0 0 0 -3.72,2.55c-0.08,0.41 0.67,1.17 1.83,0.85c0.38,-0.1 1.44,-0.87 2,-0.75a4.16,4.16 0 0 1 2.58,1.86a0.62,0.62 0 0 1 -0.5,1s-7.83,-2 -10.75,-0.4a1.56,1.56 0 0 0 -0.79,1.92c0.21,0.51 0.77,1 2.14,0.7c2.75,-0.53 7.29,1.58 7.29,1.58s-10.16,-0.33 -11.9,0.54c-0.69,0.34 -1.44,2.56 0.63,2.79c2.44,0.26 7.25,0.16 7.25,0.16s4.54,0.63 3.81,1.48s-7.7,0.92 -8.23,1s-2.89,0 -2.76,1.92c0.07,1.09 2.11,1.78 4.75,1.69c2.24,-0.07 9.19,-0.21 10,1.06s0.26,2.19 -0.38,2.51a38.8,38.8 0 0 1 -6.19,1c-0.92,0 -2.13,1.7 0.11,2.24c2.44,0.6 4.5,0.11 6.61,0.11s4.81,0.17 10.73,-2.15c0,0 4,-1.81 9.44,1.31l5.33,-8.82z"/>
   <path id="svg_85" fill="#263238" d="m143.32,136.57c0,0.15 -6.37,1 -14.27,2s-14.33,1.62 -14.34,1.47s6.37,-1 14.28,-2s14.32,-1.61 14.33,-1.47z"/>
   <path id="svg_86" fill="#263238" d="m141.9,225a4.6,4.6 0 0 1 0.35,-0.57l1.1,-1.59c1,-1.37 2.33,-3.38 4,-5.9s3.52,-5.54 5.51,-9s4,-7.27 6.07,-11.38s3.76,-8.1 5.27,-11.77s2.73,-7 3.7,-9.86s1.73,-5.14 2.22,-6.75c0.24,-0.75 0.43,-1.36 0.58,-1.84a4.13,4.13 0 0 1 0.24,-0.63a3.29,3.29 0 0 1 -0.13,0.66c-0.13,0.48 -0.29,1.1 -0.5,1.87c-0.43,1.63 -1.12,4 -2.06,6.81s-2.14,6.23 -3.61,9.92s-3.23,7.7 -5.24,11.82s-4.12,8 -6.12,11.39s-3.93,6.45 -5.62,8.94s-3.1,4.47 -4.12,5.8l-1.17,1.54a3,3 0 0 1 -0.47,0.54z"/>
   <path id="svg_87" fill="#263238" d="m108,250.94a3.92,3.92 0 0 1 0,-0.56c0,-0.4 0.09,-0.94 0.15,-1.6c0.15,-1.39 0.44,-3.42 0.89,-5.95a137.88,137.88 0 0 1 5.35,-20.05l0,0.1c-0.22,-3.48 -0.45,-7.23 -0.68,-11.12c-0.12,-1.93 -0.23,-3.83 -0.34,-5.64l0,0.1c-4.45,-8.67 -8.13,-16.44 -10.64,-22.08c-1.26,-2.81 -2.22,-5.1 -2.86,-6.68c-0.29,-0.76 -0.53,-1.37 -0.71,-1.83a3.41,3.41 0 0 1 -0.16,-0.63a3.54,3.54 0 0 1 0.3,0.61l0.79,1.79c0.7,1.55 1.7,3.82 3,6.61c2.59,5.59 6.33,13.34 10.78,22l0,0l0,0.05c0.11,1.81 0.23,3.71 0.34,5.64c0.24,3.89 0.46,7.64 0.66,11.12l0,0l0,0.05a149.11,149.11 0 0 0 -5.51,19.93c-0.5,2.52 -0.83,4.54 -1,5.92l-0.24,1.59a1.85,1.85 0 0 1 -0.12,0.63z"/>
   <path id="svg_88" fill="#263238" d="m135.16,242.78a84.54,84.54 0 0 1 -1.11,9.19a82,82 0 0 1 -1.62,9.1a81.62,81.62 0 0 1 1.11,-9.18a82.51,82.51 0 0 1 1.62,-9.11z"/>
   <path id="svg_89" fill="#263238" d="m164.79,157.89a3.27,3.27 0 0 1 -0.53,-0.72c-0.31,-0.48 -0.73,-1.2 -1.21,-2.11a38.47,38.47 0 0 1 -2.93,-7.49a39,39 0 0 1 -1.34,-7.93c-0.06,-1 -0.07,-1.86 -0.05,-2.43a3.31,3.31 0 0 1 0.08,-0.89c0.09,0 0.12,1.26 0.34,3.29a47.26,47.26 0 0 0 4.23,15.28a32.08,32.08 0 0 1 1.41,3z"/>
   <g id="svg_90" opacity="0.3">
    <path id="svg_91" d="m143,223.09a7.18,7.18 0 0 0 6.42,-0.42a17.56,17.56 0 0 0 4.94,-4.44a64.83,64.83 0 0 0 14.64,-45.5a187.48,187.48 0 0 1 -25.17,49.27"/>
   </g>
   <g id="svg_92" opacity="0.3">
    <path id="svg_93" d="m99.82,177.08a8.2,8.2 0 0 0 -3.26,-2.36a2.44,2.44 0 0 0 -3.13,1.3a3.55,3.55 0 0 0 0.26,2c1.93,5.69 3.92,11.51 7.7,16.18a9.27,9.27 0 0 0 2.37,1.89c0.9,0.57 3.35,1.07 3.69,0.1a6,6 0 0 0 0,-2.5s-5.39,-11 -8,-16.65"/>
   </g>
   <g id="svg_94" opacity="0.3">
    <path id="svg_95" d="m185.13,136.26a14.79,14.79 0 0 0 7.3,-0.13c-3.75,-2.84 -8.64,-3.46 -13.3,-4.09l6,4.22"/>
   </g>
   <path id="svg_96" fill="#263238" d="m200.57,136.68a11.76,11.76 0 0 1 -2.33,0l-5.58,-0.16l-5.58,-0.09a11.76,11.76 0 0 1 -2.32,-0.13a9.54,9.54 0 0 1 2.31,-0.24c1.43,-0.07 3.41,-0.11 5.6,-0.06s4.17,0.18 5.6,0.31a9.94,9.94 0 0 1 2.3,0.37z"/>
   <path id="svg_97" fill="#263238" d="m97,204c0,-0.06 0.53,0.3 1.29,0.88a14.62,14.62 0 0 0 3.1,1.95a6.45,6.45 0 0 0 3.53,0.46c0.91,-0.17 1.41,-0.51 1.46,-0.43s-0.41,0.51 -1.38,0.79a5.93,5.93 0 0 1 -3.81,-0.34a11.3,11.3 0 0 1 -3.14,-2.15c-0.68,-0.71 -1.05,-1.16 -1.05,-1.16z"/>
   <polygon id="svg_98" opacity="0.3" points="135.16000366210938,244.67001342773438 140.0800018310547,260.8299865722656 135.6199951171875,260.8299865722656 133.5500030517578,253.55999755859375 135.16000366210938,244.67001342773438 "/>
  </g>
 </g>
</svg>