<svg width="430" height="440" xmlns="http://www.w3.org/2000/svg">

 <g>
  <title>Layer 1</title>
  <g id="freepik--background-simple--inject-211">
   <path id="svg_1" fill="#ebebeb" d="m365,67.9l-1.84,-3c-15.46,-25.47 -43.4,-40.82 -72.87,-39a76.68,76.68 0 0 0 -11.29,1.56c-26.79,5.73 -50.1,26 -59.76,51.94c-5.68,15.26 -7.27,32.83 -18,44.94c-14,15.76 -37.86,16.26 -58.81,15.6s-44.79,-0.09 -58.76,15.73c-8.75,9.91 -11.53,24 -10.82,37.28c1.87,35.14 26.35,66.56 57.49,82.18s67.81,17 101.89,10.15c47.75,-9.63 93.15,-36.06 120.44,-76.88s34.19,-96.4 12.33,-140.5z"/>
   <circle transform="rotate(-76.87 6.59 252.66)" id="svg_2" fill="#ebebeb" r="27.11" cy="369.9" cx="212"/>
   <circle id="svg_3" fill="#ebebeb" r="20.16" cy="321.41" cx="116.07"/>
   <circle id="svg_4" fill="#ebebeb" r="10.08" cy="218.78" cx="386.67"/>
  </g>
  <g id="freepik--Character--inject-211">
   <path id="svg_5" fill="#ffbe9d" d="m353.43,207.94c7,-8.35 11.05,-10.65 16.14,-16.31c4.28,-4.78 8.64,-9.68 11.16,-15.59s2.89,-13.12 -0.66,-18.47a165,165 0 0 0 -19.62,-2.75c-8.37,-0.46 -12.26,-0.39 -12.26,-0.39l-4.64,14l8.38,3.42l-17.16,15.53l-13.55,15.76l6.78,19.55l9.12,0.84l16.31,-15.59z"/>
   <path id="svg_6" fill="#eb996e" d="m365.42,158.93a20.58,20.58 0 0 1 -2.22,2.31l-5.5,5.4c-2.16,2.11 -4.14,4 -5.62,5.31a17.83,17.83 0 0 1 -2.47,2a22.33,22.33 0 0 1 2.22,-2.3l5.5,-5.41c2.16,-2.11 4.14,-4 5.62,-5.3a18.5,18.5 0 0 1 2.47,-2.01z"/>
   <path id="svg_7" fill="#eb996e" d="m377.83,162.63c-0.07,0.06 -0.47,-0.38 -1.27,-0.85a5.84,5.84 0 0 0 -3.42,-0.81a6,6 0 0 0 -3.24,1.39c-0.7,0.6 -1,1.11 -1.09,1.07s0.15,-0.62 0.84,-1.34a5.45,5.45 0 0 1 7.12,-0.62c0.8,0.58 1.1,1.13 1.06,1.16z"/>
   <path id="svg_8" fill="#263238" d="m347.31,161a5.71,5.71 0 0 0 3.49,-7.46a22.57,22.57 0 0 0 -2.49,-3.56a12.46,12.46 0 0 1 -1.18,-2.19l-1.38,-4.24c-0.93,-3.56 -1.7,-7.16 -4.47,-9.41c-2.51,-2 -6,-2.34 -8.88,-3.79c-2.11,-1.05 -3.88,-2.69 -5.95,-3.82s-4.72,-1.68 -6.73,-0.44c-1.17,0.73 -2,2 -3.14,2.69c-2.45,1.48 -5.95,0.38 -8.19,2.15c-1.82,1.45 -2,4.14 -3.3,6.06c-1.42,2.08 -2.29,4 -4.55,5.16a6.4,6.4 0 0 0 -3.6,5.82c0,2.22 -0.32,3.23 -0.38,5.45a13.67,13.67 0 0 1 -1.54,4.74c-0.64,1.48 -1.85,7.26 -0.53,8.2l15.08,6.79c4.77,4.68 9.7,9.48 15.88,12l1.19,1.6c-1.42,0.18 15.09,-1.47 17.85,-11.4a9.83,9.83 0 0 1 1.72,-3.84a17.84,17.84 0 0 0 2.61,-3.41a6.12,6.12 0 0 0 -1.51,-7.1z"/>
   <path id="svg_9" fill="#263238" d="m331.38,177.73a81.92,81.92 0 0 0 8.62,-11.47a29,29 0 0 0 4.34,-13.55c0,-0.72 -0.23,-5.77 -0.92,-6c-0.5,-0.15 -0.89,4.3 -1.31,4.61a24.72,24.72 0 0 0 -8,12.24a65.41,65.41 0 0 0 -2.71,14.15"/>
   <path id="svg_10" fill="#ffbe9d" d="m301.56,208.53c6.93,2.68 20.9,-9.13 20.9,-9.13l16.31,-38.4c4.93,-11 2.66,-23 -8.43,-27.59l-1,-0.36a21.47,21.47 0 0 0 -26.74,11.57c-4.22,9.52 -8.76,20.1 -10.54,25.38c-3.67,10.93 6.62,16.44 6.62,16.44s-0.95,2.49 -2.21,5.64c-2.81,7.06 2.29,15.56 5.14,16.45l-0.05,0z"/>
   <path id="svg_11" fill="#eb996e" d="m298.63,186.44a27.85,27.85 0 0 0 15.64,0.76s-6.22,6.71 -16.74,1.93l1.1,-2.69z"/>
   <path id="svg_12" fill="#263238" d="m301.23,154.27c0.13,0.27 1.61,-0.19 3.28,0.4s2.6,1.85 2.86,1.71s0.05,-0.49 -0.35,-1.07a4.54,4.54 0 0 0 -2.2,-1.62a4.36,4.36 0 0 0 -2.69,-0.07c-0.66,0.22 -0.96,0.52 -0.9,0.65z"/>
   <path id="svg_13" fill="#263238" d="m317.67,159.31c0.12,0.27 1.6,-0.19 3.27,0.4s2.61,1.86 2.86,1.72s0.05,-0.5 -0.35,-1.07a4.5,4.5 0 0 0 -2.2,-1.63a4.35,4.35 0 0 0 -2.69,-0.06c-0.65,0.21 -0.96,0.52 -0.89,0.64z"/>
   <path id="svg_14" fill="#263238" d="m308.94,167.11a12,12 0 0 0 -2.54,-1.44c-0.41,-0.19 -0.79,-0.42 -0.76,-0.73a2.34,2.34 0 0 1 0.73,-1.17l2.4,-2.81c3.38,-4 6,-7.38 5.81,-7.51s-3,3 -6.4,7l-2.35,2.84a2.57,2.57 0 0 0 -0.81,1.6a1.12,1.12 0 0 0 0.48,0.87a3.29,3.29 0 0 0 0.69,0.36a11.07,11.07 0 0 0 2.75,0.99z"/>
   <path id="svg_15" fill="#263238" d="m313.46,170c-0.27,-0.11 -0.9,1.71 -2.91,2.45s-3.87,-0.13 -4,0.12s0.31,0.5 1.12,0.81a4.81,4.81 0 0 0 3.28,0a4.16,4.16 0 0 0 2.32,-2.1c0.36,-0.73 0.32,-1.28 0.19,-1.28z"/>
   <path id="svg_16" fill="#263238" d="m321.91,149.61c0,0.51 1.75,0.88 3.63,1.8s3.28,2 3.68,1.7c0.19,-0.16 0.06,-0.68 -0.43,-1.35a6.69,6.69 0 0 0 -2.47,-2a6.79,6.79 0 0 0 -3.1,-0.69c-0.82,0.06 -1.31,0.29 -1.31,0.54z"/>
   <path id="svg_17" fill="#263238" d="m305.93,144.63c0.16,0.49 1.45,0.49 2.84,1s2.47,1.15 2.88,0.85c0.19,-0.15 0.14,-0.6 -0.25,-1.14a4.13,4.13 0 0 0 -2.09,-1.42a4.08,4.08 0 0 0 -2.52,0c-0.63,0.15 -0.93,0.48 -0.86,0.71z"/>
   <path id="svg_18" fill="#ffbe9d" d="m335.06,168.75c0.22,0 8.26,0.41 5.42,7.77s-9.65,3 -9.58,2.77s4.16,-10.54 4.16,-10.54z"/>
   <path id="svg_19" fill="#eb996e" d="m334.23,177.37s0.09,0.14 0.27,0.32a1.34,1.34 0 0 0 0.95,0.39c0.89,0 2,-1 2.57,-2.28a4.51,4.51 0 0 0 0.34,-2a1.58,1.58 0 0 0 -0.58,-1.36a0.7,0.7 0 0 0 -0.89,0.06c-0.18,0.17 -0.19,0.33 -0.23,0.33s-0.11,-0.18 0.06,-0.47a0.87,0.87 0 0 1 0.47,-0.34a1,1 0 0 1 0.78,0.08a2,2 0 0 1 0.9,1.66a4.64,4.64 0 0 1 -0.35,2.22c-0.62,1.47 -1.91,2.56 -3.09,2.46a1.48,1.48 0 0 1 -1.1,-0.65c-0.16,-0.24 -0.13,-0.42 -0.1,-0.42z"/>
   <path id="svg_20" fill="#263238" d="m312.11,134.35c-0.93,-1.12 4.15,-3.56 7.59,-3.72c5.2,-0.26 12.42,1.18 16,3.94c4.34,3.33 7.44,7.38 8.14,12.8a31.12,31.12 0 0 1 -2.6,16a9.37,9.37 0 0 1 -2.81,4.07c-1.67,1.22 -4,1.46 -4.84,3.73a3.31,3.31 0 0 1 -1.65,1.94c-1.9,0.89 -3,-1.1 -3.24,-2.74c-0.47,-3.51 0.71,-7 1.87,-10.36a23.2,23.2 0 0 1 3.23,-6.79c0.84,-1.08 1.88,-2 2.66,-3.13a4.76,4.76 0 0 0 0.93,-3.87a5.49,5.49 0 0 0 -0.36,-0.84a8.21,8.21 0 0 0 -7,-4.45c-4.71,-0.17 -12.63,-0.79 -13.91,-2.92c-1.85,-3.06 -2,-4.63 -2,-4.63l-2.01,0.97z"/>
   <path id="svg_21" fill="#263238" d="m335.74,133.43a17.26,17.26 0 0 0 -12.66,-4.23a9,9 0 0 0 -6.35,3.11c-1.47,1.93 -1.6,5 0.15,6.65l0.11,0.15c2.71,2.29 4.91,2.68 8.46,2.83c3,0.14 6,-0.56 8.94,-0.41a16,16 0 0 1 8.83,3.2a26.11,26.11 0 0 0 -7.48,-11.3z"/>
   <path id="svg_22" fill="#455a64" d="m346.31,149.23a6.57,6.57 0 0 1 -1.41,1.85a16.18,16.18 0 0 1 -4.56,3.3a16.4,16.4 0 0 1 -5.4,1.57a7.09,7.09 0 0 1 -2.33,0a20.38,20.38 0 0 0 13.7,-6.7l0,-0.02z"/>
   <path id="svg_23" fill="#455a64" d="m348.79,151.63a2.41,2.41 0 0 1 -0.31,0.84a13.69,13.69 0 0 1 -1.24,2.11a16.53,16.53 0 0 1 -6.09,5.24a16.79,16.79 0 0 1 -7.86,1.74a14.84,14.84 0 0 1 -2.43,-0.28a2.85,2.85 0 0 1 -0.86,-0.28c0,-0.1 1.26,0.18 3.3,0.15a17.55,17.55 0 0 0 7.61,-1.83a17.78,17.78 0 0 0 6,-5c1.27,-1.57 1.8,-2.74 1.88,-2.69z"/>
   <path id="svg_24" fill="#ffbe9d" d="m251.71,233l-35.4,-37l-7.61,12l9.39,17.94s10.23,16.76 15.5,22.66s5.65,4.63 5.65,4.63l12.47,-20.23z"/>
   <path id="svg_25" fill="#ffbe9d" d="m203.23,185.3c-0.12,-0.08 -6.32,-1 -8.79,-1.35a2.59,2.59 0 0 0 -1.82,0.4l-3.72,2.47l-3.05,6.47l0.91,0.61l-0.93,5.84a1.85,1.85 0 0 0 3,-0.22a25.7,25.7 0 0 0 2.7,-4.38l4,-0.07l-0.18,0.37l-4.13,1.05l-1.38,3.51l1.23,3.63l2.78,2.54l1.2,-0.05l2.26,1.36s2.29,-2 0.35,-4c0,0 1.87,1.84 2.9,1.12l8.4,3.82l6.61,-6.38l1.79,-5.08s-10.53,-10.32 -11.17,-10.81a11,11 0 0 0 -2.96,-0.85z"/>
   <path id="svg_26" fill="#eb996e" d="m197.7,203.42c-0.08,0 0,-0.51 -0.07,-1.27a3.93,3.93 0 0 0 -1.41,-2.51l-0.15,-0.12l-0.15,-0.11l0.05,-0.18a5.33,5.33 0 0 0 0.11,-2.83a9.5,9.5 0 0 1 -0.32,-1.19c0.05,0 0.39,0.33 0.66,1.09a4.91,4.91 0 0 1 0.05,3.09l-0.1,-0.29l0.17,0.13a3.83,3.83 0 0 1 1.45,2.89c0.01,0.88 -0.24,1.32 -0.29,1.3z"/>
   <path id="svg_27" fill="#eb996e" d="m194.71,206.12a3.74,3.74 0 0 0 0.72,-1.22a3.71,3.71 0 0 0 -0.88,-3.17c-0.22,-0.31 -0.46,-0.6 -0.69,-0.89l-0.09,-0.11l0,-0.14a2.43,2.43 0 0 0 -0.45,-2.44c-0.44,-0.5 -0.86,-0.65 -0.83,-0.72s0.48,0 1.07,0.49a2.7,2.7 0 0 1 0.69,2.85l-0.05,-0.25q0.36,0.42 0.72,0.9a5.15,5.15 0 0 1 0.91,1.87a2.92,2.92 0 0 1 -0.1,1.73c-0.33,0.98 -1.02,1.16 -1.02,1.1z"/>
   <path id="svg_28" fill="#eb996e" d="m195.92,199.45c0.08,0.12 -0.29,0.49 -0.82,0.82s-1,0.51 -1.09,0.38s0.29,-0.49 0.82,-0.82s1.01,-0.5 1.09,-0.38z"/>
   <path id="svg_29" fill="#eb996e" d="m197.25,204c-0.15,0 -0.37,-0.71 -1,-1.42s-1.25,-1.08 -1.2,-1.22s0.93,0.06 1.61,0.89s0.73,1.75 0.59,1.75z"/>
   <path id="svg_30" fill="#eb996e" d="m199.83,204c-0.14,-0.07 0.68,-1.92 1,-4.37s0,-4.44 0.14,-4.46a8.71,8.71 0 0 1 0.38,4.53a8.81,8.81 0 0 1 -1.52,4.3z"/>
   <path id="svg_31" fill="#eb996e" d="m191.28,189.69c0.07,0 0,0.39 -0.21,0.95a6.54,6.54 0 0 1 -1.18,2.05a3.52,3.52 0 0 1 -2.09,1.18c-0.64,0.08 -1,-0.11 -1,-0.17s0.38,0 0.91,-0.19a4,4 0 0 0 1.79,-1.17a11.1,11.1 0 0 0 1.23,-1.85c0.27,-0.49 0.49,-0.83 0.55,-0.8z"/>
   <path id="svg_32" fill="#eb996e" d="m195.69,194.33c-0.09,-0.11 0.12,-0.42 0.34,-0.79s0.41,-0.69 0.56,-0.66s0.17,0.48 -0.11,0.94s-0.71,0.63 -0.79,0.51z"/>
   <path id="svg_33" fill="#455a64" d="m169.81,183.94l0.1,15.15c0,5.09 20.5,4.92 20.24,-0.14c0,-0.3 -0.1,-15.15 -0.1,-15.15l-20.24,0.14z"/>
   <path id="svg_34" fill="#455a64" d="m189.55,186.46a11.46,11.46 0 0 1 3.65,0a3.5,3.5 0 0 1 2.31,1.19a4,4 0 0 1 0.55,2a7.79,7.79 0 0 1 -0.39,3.93a5.06,5.06 0 0 1 -2.67,2.42a8.12,8.12 0 0 1 -3.59,0.52c0,-0.77 0,-1.54 0,-2.31a9.68,9.68 0 0 0 2.15,-0.13a3.32,3.32 0 0 0 1.88,-1a4.58,4.58 0 0 0 0.79,-3.39a2.46,2.46 0 0 0 -0.38,-1.34a2.16,2.16 0 0 0 -1.76,-0.66a6.52,6.52 0 0 0 -2.5,0.5"/>
   <path id="svg_35" fill="#263238" d="m182.54,153.05a0.77,0.77 0 0 1 -0.43,0.18a1.42,1.42 0 0 1 -1.2,-0.57a1.82,1.82 0 0 1 -0.41,-0.91a1.33,1.33 0 0 1 0.37,-1.14a2.24,2.24 0 0 1 2.74,-0.26a3.08,3.08 0 0 1 1.23,3.13a7.14,7.14 0 0 1 -1.81,3.45a12,12 0 0 0 -2.3,3.4a3.92,3.92 0 0 0 0.76,4c1,1.13 2.34,1.88 3.4,3a3.88,3.88 0 0 1 1.07,2a3.36,3.36 0 0 1 -0.35,2.15a7.86,7.86 0 0 1 -2.75,2.75a12,12 0 0 0 -2.53,2.07a7.2,7.2 0 0 0 -1.63,4.34a16,16 0 0 0 0.11,1.75a1.53,1.53 0 0 1 -0.15,-0.44a6,6 0 0 1 -0.16,-1.31a7.11,7.11 0 0 1 1.55,-4.57a11.31,11.31 0 0 1 2.56,-2.19a7.56,7.56 0 0 0 2.57,-2.61a2.83,2.83 0 0 0 0.29,-1.85a3.38,3.38 0 0 0 -0.95,-1.74c-1,-1 -2.35,-1.76 -3.43,-3a4.45,4.45 0 0 1 -0.85,-4.49a12.21,12.21 0 0 1 2.43,-3.53a6.76,6.76 0 0 0 1.74,-3.21a2.68,2.68 0 0 0 -1,-2.75a1.94,1.94 0 0 0 -2.34,0.14a1.28,1.28 0 0 0 0,1.72a1.31,1.31 0 0 0 1,0.59c0.32,-0.04 0.45,-0.15 0.47,-0.1z"/>
   <path id="svg_36" fill="#ffbe9d" d="m191,187.79l8,-0.38l9.08,2.58l11.33,9.67s-8.65,6.42 -11.45,3.62s-6.07,-9 -6.07,-9l-3.22,-1.36s-10.57,-0.03 -7.67,-5.13z"/>
   <path id="svg_37" fill="#eb996e" d="m214.2,195.2a2.54,2.54 0 0 1 -0.45,-0.32l-1.25,-1l-4.5,-3.74l0.07,0l-9.1,-2.53l0.03,0l-8,0.39l0.22,-0.13l-0.07,0.12a2.2,2.2 0 0 0 0,2.51a4.79,4.79 0 0 0 2.31,1.36a19.66,19.66 0 0 0 5.21,0.76l0.05,0l0,0l3.21,1.38l0.07,0l0,0.07a63.92,63.92 0 0 0 4.07,6.76c0.54,0.77 1,1.35 1.32,1.74a4,4 0 0 1 0.49,0.61a3.82,3.82 0 0 1 -0.58,-0.52a20.93,20.93 0 0 1 -1.43,-1.69a54.79,54.79 0 0 1 -4.25,-6.71l0.11,0.1l-3.23,-1.34l0.09,0a19.46,19.46 0 0 1 -5.37,-0.75a5.27,5.27 0 0 1 -2.56,-1.52a2.3,2.3 0 0 1 -0.5,-1.54a3.62,3.62 0 0 1 0.48,-1.53l0.06,-0.14l0.07,-0.12l0.23,0l8,-0.36l0.08,0l9.06,2.63l0,0l0,0l4.41,3.87c0.47,0.43 0.86,0.79 1.18,1.07s0.49,0.55 0.47,0.57z"/>
   <path id="svg_38" fill="#263238" d="m190,199.58s-0.22,0.19 -0.68,0.46a6.64,6.64 0 0 1 -0.85,0.43a10.56,10.56 0 0 1 -1.18,0.49a20.69,20.69 0 0 1 -7.26,1.17a22.64,22.64 0 0 1 -7.24,-1.25a15.66,15.66 0 0 1 -2.05,-0.87c-0.47,-0.24 -0.72,-0.39 -0.7,-0.43s1.09,0.42 2.86,0.95a26.15,26.15 0 0 0 7.14,1.08a23.16,23.16 0 0 0 7.13,-1c1.73,-0.55 2.75,-1.11 2.83,-1.03z"/>
   <path id="svg_39" fill="#263238" d="m190.11,199.45a56.5,56.5 0 0 1 -0.29,-7.82a57.25,57.25 0 0 1 0.23,-7.83a60.52,60.52 0 0 1 0.29,7.82a61.24,61.24 0 0 1 -0.23,7.83z"/>
   <path id="svg_40" fill="#263238" d="m180.07,182.85s-0.07,-0.07 -0.17,-0.25a3.56,3.56 0 0 1 -0.26,-0.83a5,5 0 0 1 0.6,-3.11a11.82,11.82 0 0 1 3.17,-3.47a10.65,10.65 0 0 0 3.59,-4.19a3.91,3.91 0 0 0 0.1,-2.71a5.74,5.74 0 0 0 -1.49,-2.14c-1.23,-1.18 -2.55,-2.21 -3.12,-3.5a3.26,3.26 0 0 1 0.13,-3.14a1.88,1.88 0 0 1 0.63,-0.6c0.18,-0.1 0.28,-0.13 0.29,-0.11a3.37,3.37 0 0 0 -0.75,0.82a3.09,3.09 0 0 0 0,2.87c0.57,1.17 1.83,2.11 3.13,3.32a6.15,6.15 0 0 1 1.63,2.31a4.36,4.36 0 0 1 -0.09,3.06a10.81,10.81 0 0 1 -3.73,4.38a11.84,11.84 0 0 0 -3.15,3.27a5.06,5.06 0 0 0 -0.73,2.92c0.06,0.72 0.27,1.08 0.22,1.1z"/>
   <path id="svg_41" fill="#B0BEC5" d="m48.5,193.18l-19.5,-14.73s8.43,-24.75 5.1,-27.82l-29.91,36.75l29.41,24.19l14.9,-18.39z"/>
   <g id="svg_42" opacity="0.3">
    <path id="svg_43" d="m48.5,193.18l-19.5,-14.73s8.43,-24.75 5.1,-27.82l-29.91,36.75l29.41,24.19l14.9,-18.39z"/>
   </g>
   <path id="svg_44" fill="#e0e0e0" d="m21.36,191.11a1.94,1.94 0 0 1 -2.56,-0.36a1.85,1.85 0 0 1 0.33,-2.53a2,2 0 0 1 2.71,0.39a1.93,1.93 0 0 1 -0.64,2.6"/>
   <g id="svg_45" opacity="0.6">
    <path id="svg_46" fill="#fff" d="m4.19,187.38l3.06,2.32l27.54,-36.1s0.62,-2.22 -0.68,-3l-29.92,36.78z"/>
   </g>
   <path id="svg_47" fill="#263238" d="m29.69,178c-0.19,-0.14 -1,0.69 -2.3,1.1s-2.43,0.27 -2.49,0.49s1.19,0.8 2.75,0.28s2.23,-1.77 2.04,-1.87z"/>
   <path id="svg_48" fill="#263238" d="m31.23,172.85c-0.14,-0.18 -1.08,0.35 -2.33,0.34s-2.2,-0.48 -2.34,-0.3s0.78,1.11 2.34,1.11s2.5,-1 2.33,-1.15z"/>
   <path id="svg_49" fill="#263238" d="m28.4,166.91c-0.17,0.13 0.52,1.11 1.88,1.45s2.43,-0.18 2.34,-0.38s-1,-0.1 -2.14,-0.4s-1.92,-0.83 -2.08,-0.67z"/>
   <path id="svg_50" fill="#263238" d="m33.75,181.86c-0.22,-0.06 -0.64,1 -1.54,1.92s-1.86,1.49 -1.78,1.71s1.34,0 2.38,-1.16s1.19,-2.45 0.94,-2.47z"/>
   <path id="svg_51" fill="#B0BEC5" d="m58.07,178.9l-17.53,-17s11.46,-23.54 8.46,-27l-34.19,32.8l26.19,27.62l17.07,-16.42z"/>
   <path id="svg_52" fill="#e0e0e0" d="m31.39,173.51a1.94,1.94 0 0 1 -2.5,-0.67a1.87,1.87 0 0 1 0.64,-2.48a2,2 0 0 1 2.64,0.73a1.94,1.94 0 0 1 -1,2.5"/>
   <g id="svg_53" opacity="0.6">
    <path id="svg_54" fill="#fff" d="m14.81,167.7l2.75,2.68l31.77,-32.45s0.89,-2.12 -0.31,-3l-34.21,32.77z"/>
   </g>
   <path id="svg_55" fill="#263238" d="m41.26,161.53c-0.16,-0.16 -1.07,0.56 -2.41,0.81s-2.44,0 -2.53,0.19s1.08,0.94 2.69,0.6s2.44,-1.48 2.25,-1.6z"/>
   <path id="svg_56" fill="#263238" d="m43.43,156.61c-0.12,-0.2 -1.11,0.21 -2.36,0s-2.12,-0.76 -2.28,-0.59s0.64,1.21 2.19,1.39s2.6,-0.64 2.45,-0.8z"/>
   <path id="svg_57" fill="#263238" d="m41.35,150.36c-0.19,0.11 0.38,1.17 1.69,1.67s2.43,0.12 2.37,-0.09s-1,-0.23 -2.08,-0.66s-1.8,-1.06 -1.98,-0.92z"/>
   <path id="svg_58" fill="#263238" d="m44.83,165.85c-0.22,-0.08 -0.76,0.88 -1.77,1.72s-2,1.25 -2,1.48s1.33,0.14 2.5,-0.87s1.44,-2.28 1.27,-2.33z"/>
   <path id="svg_59" fill="#263238" d="m50.42,170.27s52.6,41.55 62.47,42.78l11.2,1.82l22.51,9.69l69.49,36.59l21.79,15.22l11.19,21.14l0.95,12.7s-50.27,6.12 -57.67,1.6s-70.83,-51.89 -74.12,-55.59s-63.1,-28.78 -86.94,-69.84l19.13,-16.11z"/>
   <path id="svg_60" fill="#263238" d="m23.32,210.1s38.15,35.43 64.88,45.71a326.6,326.6 0 0 1 48.1,23.43l44.83,24.41l57.59,-26l-11.37,-20.39l-93.51,-22l-94.95,-48.13s-15.16,15.57 -15.57,22.97z"/>
   <path id="svg_61" fill="#263238" d="m212.9,288.42a23.85,23.85 0 0 1 22.26,-12"/>
   <path id="svg_62" fill="#263238" d="m218,267.66a13.15,13.15 0 0 1 -4.17,14.08"/>
   <path id="svg_63" fill="#455a64" d="m184.93,244.2a5.43,5.43 0 0 1 1.07,0.46c0.67,0.33 1.63,0.82 2.81,1.45c2.36,1.25 5.57,3.06 9,5.19s6.55,4.17 8.73,5.71c1.09,0.76 2,1.39 2.56,1.85a5,5 0 0 1 0.9,0.74a5.06,5.06 0 0 1 -1,-0.58l-2.65,-1.71c-2.24,-1.45 -5.33,-3.44 -8.8,-5.57s-6.64,-4 -9,-5.31l-2.73,-1.59a4.39,4.39 0 0 1 -0.89,-0.64z"/>
   <path id="svg_64" fill="#455a64" d="m195,310.65l-0.45,-0.28l-1.29,-0.88l-5,-3.43l-18.16,-12.67l-26.9,-18.85l-15.88,-11.15l-8.39,-5.9q-4.23,-3 -8.76,-5.88c-6.05,-3.76 -12.13,-7.19 -17.78,-10.85s-11,-7.31 -16.09,-10.87s-9.85,-6.95 -14.25,-10.25a140.14,140.14 0 0 1 -11.76,-9.81a108.75,108.75 0 0 1 -14.59,-16.65c-0.76,-1.06 -1.41,-2 -2,-2.87s-1,-1.55 -1.38,-2.13s-0.63,-1 -0.83,-1.33s-0.27,-0.47 -0.27,-0.47s0.12,0.15 0.31,0.44l0.87,1.3c0.38,0.58 0.85,1.28 1.43,2.11s1.23,1.78 2,2.83a112.11,112.11 0 0 0 14.67,16.5a145.4,145.4 0 0 0 11.76,9.73c4.41,3.28 9.23,6.64 14.28,10.21s10.41,7.21 16.08,10.83s11.72,7.07 17.78,10.84c3,1.89 6,3.87 8.79,5.9l8.39,5.9l15.86,11.17l26.83,18.95l18.07,12.81l4.9,3.5l1.26,0.92a5.07,5.07 0 0 1 0.5,0.33z"/>
   <path id="svg_65" fill="#B0BEC5" d="m296.2,192.11s-18.31,9.89 -21.73,14c-3.18,3.84 -38.62,39.3 -38.62,39.3s-22.93,6.82 -22,8.73c1.63,3.49 8.06,9.76 11.5,13a32,32 0 0 1 4.12,4.65c2.9,4 8.57,11.83 13.25,18.36a43.64,43.64 0 0 1 7.28,20.06l16.17,-8.89c8.25,-3.33 12.75,-12.35 21.82,-17l27.24,-29.32l8.3,-16.95l2.76,-41.71l-3.93,0.28l-15.23,2s-13.19,-1.44 -10.93,-6.51z"/>
   <path id="svg_66" fill="#B0BEC5" d="m310.86,203.08l12.53,-5.54a110.51,110.51 0 0 1 10,-8.56s-15.63,19.47 -1.91,26s24.82,-10.68 24.82,-10.68a85.83,85.83 0 0 0 -4.36,7.57c-1.6,3.32 -9.74,13.91 -9.74,13.91a19,19 0 0 1 -4.92,10.6c-4.68,5.35 -9.94,14.21 -14.12,16.48s-13.52,6.43 -13.52,6.43a118.94,118.94 0 0 1 -1.71,-30.7c1.37,-16.04 2.93,-25.51 2.93,-25.51z"/>
   <path id="svg_67" fill="#263238" d="m330.31,218.77a5.71,5.71 0 0 1 -1.06,-0.77a20.94,20.94 0 0 1 -2.58,-2.5a10.22,10.22 0 0 1 -2.34,-4.79a16.64,16.64 0 0 1 0.39,-6.53a33.62,33.62 0 0 1 4.85,-10.74c0.83,-1.26 1.56,-2.24 2.08,-2.91a6.45,6.45 0 0 1 0.86,-1a5.82,5.82 0 0 1 -0.69,1.11c-0.47,0.7 -1.15,1.71 -1.94,3a36,36 0 0 0 -4.65,10.66a16.67,16.67 0 0 0 -0.43,6.32a10.11,10.11 0 0 0 2.16,4.65c1.91,2.29 3.43,3.42 3.35,3.5z"/>
   <path id="svg_68" fill="#263238" d="m328.44,233.92a2.81,2.81 0 0 1 -0.48,0.23c-0.32,0.13 -0.8,0.33 -1.43,0.56a18.07,18.07 0 0 1 -5.56,1.06a8.37,8.37 0 0 1 -3.84,-0.88a7.16,7.16 0 0 1 -3.13,-3.29c-1.42,-2.93 -1.58,-6.55 -1.28,-10.16a40.26,40.26 0 0 1 2.11,-10.06a35.59,35.59 0 0 1 4,-7.39c1.35,-2 2.54,-3.49 3.37,-4.53c0.4,-0.47 0.72,-0.86 1,-1.18s0.35,-0.4 0.37,-0.39a2.45,2.45 0 0 1 -0.29,0.45l-0.89,1.25c-0.79,1.07 -1.93,2.62 -3.23,4.6a36.44,36.44 0 0 0 -3.82,7.36a41.55,41.55 0 0 0 -2.05,9.93c-0.29,3.57 -0.13,7.12 1.2,9.91a6.8,6.8 0 0 0 2.88,3.12a8.14,8.14 0 0 0 3.65,0.89a19.68,19.68 0 0 0 5.49,-0.88l1.45,-0.47a2.12,2.12 0 0 1 0.48,-0.13z"/>
   <path id="svg_69" fill="#263238" d="m323.37,197.05a25.09,25.09 0 0 1 -2.21,1.8a42.85,42.85 0 0 0 -4.93,4.72a43.84,43.84 0 0 0 -4.1,5.46a24.46,24.46 0 0 1 -1.52,2.4a11,11 0 0 1 1.21,-2.59a32.94,32.94 0 0 1 4,-5.62a33.32,33.32 0 0 1 5.1,-4.66a11.53,11.53 0 0 1 2.45,-1.51z"/>
   <g id="svg_70" opacity="0.3">
    <path id="svg_71" d="m324.17,197.05l0,0a45.6,45.6 0 0 0 -13.59,30.4c0,1 0.27,2.33 1.27,2.35a1.34,1.34 0 0 0 1.22,-1.15a6.45,6.45 0 0 0 -0.15,-1.8c-0.38,-4.81 0.67,-10.49 2.34,-15.58s5.74,-9.93 8.91,-14.22z"/>
   </g>
   <g id="svg_72" opacity="0.3">
    <path id="svg_73" d="m331.26,190.7c-3.41,3.81 -6.6,7.93 -8.32,12.74s-1.8,10.4 0.81,14.79c0.72,1.21 2.17,2.43 3.39,1.72a2.19,2.19 0 0 0 0.7,-2.59a10.9,10.9 0 0 0 -1.54,-2.46c-2.37,-3.45 -2.45,-8.06 -1.21,-12.06s3.63,-7.51 6,-11"/>
   </g>
   <g id="svg_74" opacity="0.3">
    <path id="svg_75" d="m223.56,265.46a53.28,53.28 0 0 0 19.14,7.48c5.76,0.9 11.63,-0.11 17.39,-1c15,-2.42 30.29,-4.61 45.39,-6.44l-81.92,0"/>
   </g>
   <path id="svg_76" fill="#263238" d="m278.06,310.21a2.67,2.67 0 0 1 0.88,-0.25a9.24,9.24 0 0 1 2.47,-0.09a12.27,12.27 0 0 1 7.31,3.46a13.05,13.05 0 0 1 2.7,3.61a8.8,8.8 0 0 1 0.91,3.58a9.26,9.26 0 0 1 -0.25,2.47a2.89,2.89 0 0 1 -0.31,0.85a19,19 0 0 0 0.2,-3.3a8.86,8.86 0 0 0 -1,-3.38a13.17,13.17 0 0 0 -2.63,-3.46a12.7,12.7 0 0 0 -7,-3.47a19.66,19.66 0 0 0 -3.28,-0.02z"/>
   <rect id="svg_77" fill="#455a64" rx="10.33" height="22.41" width="115.82" y="310.21" x="176.22"/>
   <rect transform="rotate(33.53 192.18 -180.76)" id="svg_78" fill="#455a64" rx="8.2" height="139.28" width="17.79" y="60.22001" x="535.29999"/>
   <path id="svg_79" fill="#263238" d="m223.86,287c0.2,0 7,6.65 8.6,11.15s3.69,15.49 4.65,19.67c1.33,5.73 3.45,11.25 11.28,11.61l29.65,0.12a5.36,5.36 0 0 0 4.52,-2.45l25.95,-40.1l-8.11,0l-22.65,33.74l-25.68,0a5.79,5.79 0 0 1 -4.63,-2.2a4.24,4.24 0 0 1 -0.78,-1.56c-0.58,-2.32 -2.61,-14.34 -5.07,-19.56a96.23,96.23 0 0 0 -5.94,-10.42l-11.79,0z"/>
   <path id="svg_80" fill="#455a64" d="m250.89,325.15a1.83,1.83 0 1 1 -1.82,-1.82a1.82,1.82 0 0 1 1.82,1.82z"/>
   <path id="svg_81" fill="#455a64" d="m279.57,325.15a1.83,1.83 0 1 1 -1.82,-1.82a1.83,1.83 0 0 1 1.82,1.82z"/>
   <rect id="svg_82" fill="#263238" rx="2.54" height="5.51" width="101.74" y="281.52" x="214.61"/>
   <path id="svg_83" fill="#455a64" d="m256.88,281.52l-0.26,0l-0.74,0l-2.9,0.06l-10.84,0.13c-4.63,0 -10.2,0.09 -16.49,0.07l-4.86,0c-1.64,0 -3.44,-0.33 -4.87,0.52a1.85,1.85 0 0 0 -0.9,2a2.48,2.48 0 0 0 1.59,1.75a12.44,12.44 0 0 0 5.33,0.71l19.66,0l50.71,0.08l15.37,0.08l4.18,0.05l1.08,0a1.7,1.7 0 0 1 0.37,0l-0.37,0l-1.08,0l-4.18,0.05l-15.37,0.08l-50.71,0.08l-19.6,0a12.5,12.5 0 0 1 -5.57,-0.76a2.94,2.94 0 0 1 -1.86,-2.1c0,-0.24 -0.06,-0.47 -0.05,-0.73a2.42,2.42 0 0 1 0.2,-0.71a2.55,2.55 0 0 1 1,-1.06a5.27,5.27 0 0 1 2.6,-0.64c0.88,0 1.7,0.06 2.53,0.07l4.85,0.07l16.49,0l10.81,0l2.9,0l0.74,0l0.24,0.2z"/>
   <path id="svg_84" fill="#455a64" d="m235.85,312a4.91,4.91 0 0 1 -0.34,-1.05c-0.21,-0.79 -0.46,-1.76 -0.75,-2.9a87.07,87.07 0 0 0 -2.76,-9.48a34.06,34.06 0 0 0 -2.3,-4.88a28.35,28.35 0 0 0 -2.57,-3.58c-1.65,-1.91 -2.87,-2.9 -2.8,-3a5.63,5.63 0 0 1 0.89,0.66a18.35,18.35 0 0 1 2.18,2.08a24,24 0 0 1 2.71,3.57a31.2,31.2 0 0 1 2.38,4.95a66.72,66.72 0 0 1 2.63,9.57c0.26,1.24 0.46,2.25 0.59,2.95a4.43,4.43 0 0 1 0.14,1.11z"/>
   <rect id="svg_85" fill="#263238" height="81.29" width="6.45" y="332.62" x="232.87"/>
   <polygon id="svg_86" fill="#263238" points="238.010009765625,400.8800048828125 305.0400085449219,414.07000732421875 305.0400085449219,421.07000732421875 238.010009765625,410.9800109863281 238.010009765625,400.8800048828125 "/>
   <circle id="svg_87" fill="#263238" r="5.94" cy="426.12" cx="299.1"/>
   <polygon id="svg_88" fill="#263238" points="236.27999877929688,400.8800048828125 182.0500030517578,414.1199951171875 182.0500030517578,421.1199951171875 236.27999877929688,410.3399963378906 236.27999877929688,400.8800048828125 "/>
   <circle id="svg_89" fill="#263238" r="5.94" cy="426.12" cx="187.99"/>
   <circle id="svg_90" fill="#263238" r="5.94" cy="426.12" cx="236.11"/>
   <polygon id="svg_91" fill="#263238" points="242.8699951171875,420.17999267578125 229.42001342773438,420.17999267578125 229.54998779296875,369.3299865722656 243.010009765625,369.3299865722656 242.8699951171875,420.17999267578125 "/>
   <path id="svg_92" fill="#455a64" d="m242.51,369.44a39.72,39.72 0 0 1 -6.37,0.26a39.64,39.64 0 0 1 -6.36,-0.26a39.64,39.64 0 0 1 6.36,-0.26a39.72,39.72 0 0 1 6.37,0.26z"/>
   <path id="svg_93" fill="#455a64" d="m242.09,411.57a39.72,39.72 0 0 1 -6.37,0.26a39.72,39.72 0 0 1 -6.37,-0.26a39.72,39.72 0 0 1 6.37,-0.26a39.72,39.72 0 0 1 6.37,0.26z"/>
  </g>
  <g id="freepik--Table--inject-211">
   <rect id="svg_94" fill="#455a64" height="13.93" width="318.56" y="251.53" x="10.05"/>
   <path id="svg_95" fill="#263238" d="m77.53,251.73s0,0.06 -0.1,0.15s-0.18,0.24 -0.33,0.42a6.57,6.57 0 0 1 -1.6,1.28a9.11,9.11 0 0 1 -3.08,1a21.69,21.69 0 0 1 -4.29,0.18a40.79,40.79 0 0 1 -5.17,-0.59a45.7,45.7 0 0 0 -5.89,-0.7a36.38,36.38 0 0 0 -13.24,2.57c-4.55,1.66 -8.83,3.51 -12.83,4.63a35.73,35.73 0 0 1 -5.86,1.17a25.13,25.13 0 0 1 -5.21,0a17.7,17.7 0 0 1 -7.14,-2.29a11,11 0 0 1 -2.21,-1.65s0.06,0 0.16,0.1l0.42,0.31a14.73,14.73 0 0 0 1.71,1.11a18,18 0 0 0 7.09,2.14a24.73,24.73 0 0 0 5.15,0a35.56,35.56 0 0 0 5.8,-1.18c4,-1.14 8.25,-3 12.82,-4.62a36.27,36.27 0 0 1 13.39,-2.56a45.34,45.34 0 0 1 5.92,0.74a43.22,43.22 0 0 0 5.13,0.64a22.14,22.14 0 0 0 4.24,-0.13a9.16,9.16 0 0 0 3,-0.95a7.93,7.93 0 0 0 2.12,-1.77z"/>
   <path id="svg_96" fill="#263238" d="m42.68,251.94a6,6 0 0 1 -1,0.83a21.37,21.37 0 0 1 -2.91,1.87a25.39,25.39 0 0 1 -4.75,1.93a25.73,25.73 0 0 1 -6.21,1a23.63,23.63 0 0 1 -11.1,-2.29a6.93,6.93 0 0 1 -2.68,-2.19a3.82,3.82 0 0 1 -0.44,-0.84c-0.07,-0.2 -0.1,-0.31 -0.08,-0.32a8.43,8.43 0 0 0 0.64,1.07a7.21,7.21 0 0 0 2.68,2a24.51,24.51 0 0 0 11,2.15a25.84,25.84 0 0 0 10.85,-2.76a27.34,27.34 0 0 0 2.94,-1.75a8.65,8.65 0 0 1 1.06,-0.7z"/>
   <path id="svg_97" fill="#263238" d="m117.43,260.77a5.16,5.16 0 0 1 0.5,0.18a8.77,8.77 0 0 0 7,-0.48l0,0.18a13.28,13.28 0 0 0 -6.93,-2.65a13.47,13.47 0 0 0 -9,2.34a1.45,1.45 0 0 0 -0.7,0.9a1,1 0 0 0 0.6,0.9a4.15,4.15 0 0 0 1.24,0.44l1.35,0.3c1.83,0.41 3.71,0.81 5.66,1.1a34,34 0 0 0 6,0.41a23.08,23.08 0 0 0 3.09,-0.3c0.51,-0.09 1,-0.19 1.54,-0.32a7.53,7.53 0 0 0 1.48,-0.48a4.89,4.89 0 0 0 1.93,-1.4a2.17,2.17 0 0 0 0.37,-2.14a3.62,3.62 0 0 0 -1.51,-1.69a11.54,11.54 0 0 0 -2.12,-1a28.74,28.74 0 0 0 -8.84,-1.84a36.83,36.83 0 0 0 -15.09,2.26a37.55,37.55 0 0 0 -9.09,5c-1,0.75 -1.72,1.34 -2.2,1.78l-0.56,0.48c-0.12,0.11 -0.19,0.16 -0.2,0.15l0.18,-0.18l0.53,-0.51c0.46,-0.45 1.2,-1.07 2.16,-1.84a36.22,36.22 0 0 1 9.09,-5.11a36.66,36.66 0 0 1 15.22,-2.44a29.11,29.11 0 0 1 9,1.84a12.56,12.56 0 0 1 2.18,1.07a4,4 0 0 1 1.67,1.88a2.56,2.56 0 0 1 -0.43,2.51a5.22,5.22 0 0 1 -2.08,1.52a8,8 0 0 1 -1.55,0.5c-0.52,0.14 -1,0.24 -1.57,0.33a23.66,23.66 0 0 1 -3.14,0.3a33.76,33.76 0 0 1 -6.08,-0.43c-2,-0.29 -3.85,-0.7 -5.68,-1.11l-1.35,-0.31a4.78,4.78 0 0 1 -1.34,-0.48a1.74,1.74 0 0 1 -0.56,-0.49a1.11,1.11 0 0 1 -0.2,-0.75a1.75,1.75 0 0 1 0.84,-1.15a13.69,13.69 0 0 1 9.22,-2.34a13.42,13.42 0 0 1 7,2.81l0.13,0.1l-0.15,0.08a8.64,8.64 0 0 1 -5.69,0.79a6.28,6.28 0 0 1 -1.92,-0.71z"/>
   <path id="svg_98" fill="#263238" d="m158.42,252.09a2,2 0 0 1 0.32,0.71a5.35,5.35 0 0 1 0.21,2.09a10.38,10.38 0 0 1 -3.1,6.08a15.81,15.81 0 0 1 -2.9,2.46a13.42,13.42 0 0 1 -2.8,1.36a13,13 0 0 1 -2,0.5a3.27,3.27 0 0 1 -0.76,0.07c0,-0.07 1.07,-0.22 2.7,-0.84a13.87,13.87 0 0 0 2.69,-1.39a16.33,16.33 0 0 0 2.81,-2.43a10.52,10.52 0 0 0 3.11,-5.84a7.29,7.29 0 0 0 -0.28,-2.77z"/>
   <path id="svg_99" fill="#263238" d="m215.63,264.72s-0.45,-0.58 -1.46,-1.42a10.37,10.37 0 0 0 -5,-2.24a11.09,11.09 0 0 0 -3.79,0.1a15.83,15.83 0 0 1 -4.44,0.41a8.84,8.84 0 0 1 -4.43,-2.17a15,15 0 0 0 -4.45,-2.63a16.3,16.3 0 0 0 -9.88,-0.16a23.41,23.41 0 0 0 -7.3,3.7a40.4,40.4 0 0 0 -4.24,3.62l-1.07,1.07a3.42,3.42 0 0 1 -0.39,0.36a2.56,2.56 0 0 1 0.33,-0.42c0.23,-0.26 0.57,-0.64 1,-1.12a35.71,35.71 0 0 1 4.18,-3.73a23.37,23.37 0 0 1 7.37,-3.83a16.5,16.5 0 0 1 10.11,0.14a15.07,15.07 0 0 1 4.55,2.7a8.6,8.6 0 0 0 4.24,2.11a15.93,15.93 0 0 0 4.35,-0.37a11.35,11.35 0 0 1 3.89,-0.06a10.2,10.2 0 0 1 5,2.41a7,7 0 0 1 1.43,1.53z"/>
   <path id="svg_100" fill="#263238" d="m266.7,251.66a3.54,3.54 0 0 1 -0.35,0.48c-0.24,0.29 -0.57,0.76 -1.08,1.29a29.67,29.67 0 0 1 -4.65,4.13a37,37 0 0 1 -8.07,4.47a31.77,31.77 0 0 1 -5.21,1.66a26.79,26.79 0 0 1 -5.82,0.75a28.68,28.68 0 0 1 -11,-2.29a36.86,36.86 0 0 1 -8,-4.56a31.53,31.53 0 0 1 -4.61,-4.16a15.85,15.85 0 0 1 -1.09,-1.3a3.2,3.2 0 0 1 -0.35,-0.47a3.7,3.7 0 0 1 0.41,0.42c0.26,0.28 0.61,0.73 1.14,1.24a33.63,33.63 0 0 0 4.67,4.05a37.05,37.05 0 0 0 8,4.44a28.63,28.63 0 0 0 10.9,2.24a26.92,26.92 0 0 0 5.74,-0.73a33.73,33.73 0 0 0 5.15,-1.62a38.12,38.12 0 0 0 8,-4.36a32,32 0 0 0 4.7,-4c0.53,-0.51 0.88,-1 1.14,-1.24a3.43,3.43 0 0 1 0.38,-0.44z"/>
   <path id="svg_101" fill="#263238" d="m259.41,251.53a2.14,2.14 0 0 1 -0.28,0.22c-0.18,0.13 -0.45,0.33 -0.82,0.56a33.06,33.06 0 0 1 -3.19,1.8a34.06,34.06 0 0 1 -5,2.05a22.14,22.14 0 0 1 -6.58,1.13a27.14,27.14 0 0 1 -11.68,-3a26.27,26.27 0 0 1 -3.16,-1.86c-0.36,-0.24 -0.62,-0.45 -0.81,-0.59s-0.27,-0.22 -0.26,-0.23a10,10 0 0 1 1.15,0.69a32.22,32.22 0 0 0 3.2,1.74a28.16,28.16 0 0 0 11.56,2.81a23,23 0 0 0 6.47,-1.08a36.05,36.05 0 0 0 5,-2c1.39,-0.66 2.48,-1.25 3.23,-1.69a9.76,9.76 0 0 1 1.17,-0.55z"/>
   <path id="svg_102" fill="#263238" d="m315.12,253a2.84,2.84 0 0 1 -0.64,0l-1.79,-0.07l-1.3,-0.06l-1.54,0c-1.11,0 -2.37,0 -3.76,0l-2.19,0.07l-2.35,0.16c-1.64,0.08 -3.35,0.31 -5.17,0.48c-3.6,0.46 -7.5,1.1 -11.47,2a108.19,108.19 0 0 0 -10.75,3.07c-1.54,0.58 -3.06,1.09 -4.36,1.67l-1.93,0.8l-1.7,0.8c-1.11,0.49 -2,1 -2.84,1.43l-1.15,0.6l-0.9,0.54l-1.27,0.75a2.84,2.84 0 0 1 -0.48,0.24s0.11,-0.11 0.37,-0.3l1.19,-0.79l0.86,-0.57l1.12,-0.63c0.8,-0.45 1.7,-1 2.79,-1.48l1.69,-0.83l1.92,-0.83c1.3,-0.59 2.82,-1.12 4.37,-1.71a106.83,106.83 0 0 1 10.82,-3.13c4,-0.9 8,-1.53 11.6,-2c1.84,-0.17 3.57,-0.38 5.22,-0.45l2.38,-0.14l2.21,-0.05c1.4,0 2.67,0 3.79,0l1.55,0l1.3,0.09l1.79,0.14a3.77,3.77 0 0 1 0.62,0.2z"/>
   <path id="svg_103" fill="#263238" d="m221.35,264.44a14.54,14.54 0 0 0 -1.75,-2.08a16.3,16.3 0 0 0 -6.42,-3.59a34.2,34.2 0 0 0 -5,-1.1c-1.83,-0.29 -3.79,-0.52 -5.86,-0.88a48.85,48.85 0 0 1 -6.32,-1.59a42,42 0 0 0 -6.78,-1.64a28.21,28.21 0 0 0 -13.22,1.83a48,48 0 0 0 -5.38,2.41c-1.65,0.85 -3.16,1.68 -4.53,2.45c-2.74,1.55 -4.92,2.88 -6.43,3.79l-1.73,1.06l-0.45,0.28l-0.16,0.08s0,0 0.14,-0.12l0.43,-0.3c0.38,-0.27 0.95,-0.65 1.69,-1.13c1.48,-1 3.65,-2.31 6.37,-3.9c1.37,-0.79 2.88,-1.64 4.52,-2.5a49.38,49.38 0 0 1 5.4,-2.46a28.35,28.35 0 0 1 13.4,-1.88a41.44,41.44 0 0 1 6.84,1.66a50.58,50.58 0 0 0 6.32,1.61c2,0.36 4,0.6 5.84,0.91a34.09,34.09 0 0 1 5,1.16a16,16 0 0 1 6.45,3.74a8.06,8.06 0 0 1 1.63,2.19z"/>
   <path id="svg_104" fill="#263238" d="m149.6,251.73a3,3 0 0 1 0,0.89a9.68,9.68 0 0 1 -0.62,2.35a13.49,13.49 0 0 1 -4.89,6.27a33,33 0 0 1 -7.26,3.34c-1,0.32 -1.77,0.55 -2.32,0.7a4.33,4.33 0 0 1 -0.87,0.18a3.78,3.78 0 0 1 0.83,-0.33l2.27,-0.81a37.54,37.54 0 0 0 7.13,-3.41a14,14 0 0 0 4.85,-6a18.07,18.07 0 0 0 0.88,-3.18z"/>
   <path id="svg_105" fill="#263238" d="m75.65,265.46a5.45,5.45 0 0 1 0.77,-0.75c0.52,-0.46 1.29,-1.1 2.27,-1.85a64.51,64.51 0 0 1 8.13,-5.24c3.31,-1.82 6.4,-3.27 8.64,-4.31c1.13,-0.51 2,-0.92 2.68,-1.19a6.62,6.62 0 0 1 1,-0.39a5.27,5.27 0 0 1 -0.94,0.53l-2.62,1.31c-2.21,1.09 -5.28,2.58 -8.57,4.39a79.75,79.75 0 0 0 -8.15,5.12c-1,0.72 -1.8,1.32 -2.34,1.75a5.82,5.82 0 0 1 -0.87,0.63z"/>
   <path id="svg_106" fill="#263238" d="m90.66,252.3c0,0.05 -0.74,-0.09 -2.06,0a14.53,14.53 0 0 0 -5.31,1.61a48.52,48.52 0 0 0 -6.91,4.64a35.74,35.74 0 0 1 -4.15,2.69a23,23 0 0 1 -5,1.91a45.75,45.75 0 0 1 -10.17,1.23c-3.15,0.09 -6,0 -8.35,0.12a42.47,42.47 0 0 0 -5.59,0.55c-0.65,0.12 -1.15,0.22 -1.49,0.3a2.92,2.92 0 0 1 -0.53,0.1a2,2 0 0 1 0.51,-0.18c0.33,-0.1 0.83,-0.22 1.49,-0.37a36.25,36.25 0 0 1 5.6,-0.67c2.38,-0.14 5.21,-0.1 8.35,-0.21a47.33,47.33 0 0 0 10.09,-1.24a23.49,23.49 0 0 0 4.89,-1.88a34.25,34.25 0 0 0 4.12,-2.65a47,47 0 0 1 7,-4.58a13.93,13.93 0 0 1 5.42,-1.52a8.57,8.57 0 0 1 1.54,0l0.55,0.15z"/>
   <polygon id="svg_107" fill="#455a64" points="39.36000061035156,432.4100036621094 34.83000183105469,432.4100036621094 32.25,264.3800048828125 41.93000030517578,264.3800048828125 39.36000061035156,432.4100036621094 "/>
   <polygon id="svg_108" fill="#263238" points="331.20001220703125,432.05999755859375 326.67999267578125,432.05999755859375 328.94000244140625,264.8599853515625 338.6199951171875,264.8599853515625 331.20001220703125,432.05999755859375 "/>
   <rect id="svg_109" fill="#263238" height="13.93" width="40.39" y="251.52" x="313.42"/>
  </g>
  <g id="freepik--Plants--inject-211">
   <g id="freepik--plants--inject-211">
    <polygon id="svg_110" fill="#B0BEC5" points="62.720001220703125,227.6400146484375 66.37999725341797,251.69000244140625 87.63999938964844,251.69000244140625 92.57000732421875,227.989990234375 62.720001220703125,227.6400146484375 "/>
    <path id="svg_111" fill="#fafafa" d="m89.6,243.05c0,0.07 -5.45,0.13 -12.17,0.13s-12.16,-0.06 -12.16,-0.13s5.44,-0.12 12.16,-0.12s12.17,0.07 12.17,0.12z"/>
    <path id="svg_112" fill="#fafafa" d="m89.68,241.87c0,0.07 -5.48,0.13 -12.25,0.13s-12.25,-0.06 -12.25,-0.13s5.49,-0.12 12.25,-0.12s12.25,0.05 12.25,0.12z"/>
    <path id="svg_113" fill="#fafafa" d="m89.64,240.53c0,0.07 -5.48,0.13 -12.25,0.13s-12.25,-0.06 -12.25,-0.13s5.49,-0.12 12.25,-0.12s12.25,0.06 12.25,0.12z"/>
    <path id="svg_114" fill="#fafafa" d="m68.82,250.32a19.12,19.12 0 0 1 -0.65,-3a19.58,19.58 0 0 1 -0.41,-3.07a18.8,18.8 0 0 1 0.65,3a18.25,18.25 0 0 1 0.41,3.07z"/>
    <path id="svg_115" fill="#fafafa" d="m70.27,250.06a24.61,24.61 0 0 1 -0.27,-2.95a23.7,23.7 0 0 1 -0.14,-3a14,14 0 0 1 0.39,2.95a15.36,15.36 0 0 1 0.02,3z"/>
    <path id="svg_116" fill="#fafafa" d="m72.9,250.06a15.84,15.84 0 0 1 -0.55,-3a14.4,14.4 0 0 1 -0.16,-3.07a26.81,26.81 0 0 1 0.41,3a27.56,27.56 0 0 1 0.3,3.07z"/>
    <path id="svg_117" fill="#fafafa" d="m74.75,250.19a25.16,25.16 0 0 1 -0.2,-6.17a79.25,79.25 0 0 1 0.2,6.17z"/>
    <path id="svg_118" fill="#fafafa" d="m78,250.06a35.72,35.72 0 0 1 -0.2,-5.85a35.72,35.72 0 0 1 0.2,5.85z"/>
    <path id="svg_119" fill="#fafafa" d="m80.42,250.19a18.69,18.69 0 0 1 -0.1,-3a19.07,19.07 0 0 1 0.15,-3a18.69,18.69 0 0 1 0.1,3a17.74,17.74 0 0 1 -0.15,3z"/>
    <path id="svg_120" fill="#fafafa" d="m82.67,249.87a19.66,19.66 0 0 1 0.18,-3.16a20.34,20.34 0 0 1 0.43,-3.14a22,22 0 0 1 -0.19,3.16a21.16,21.16 0 0 1 -0.42,3.14z"/>
    <path id="svg_121" fill="#fafafa" d="m85.56,249.55a10.5,10.5 0 0 1 0.36,-2.68a10.09,10.09 0 0 1 0.79,-2.6c0.06,0 -0.24,1.2 -0.55,2.65a24.9,24.9 0 0 1 -0.6,2.63z"/>
    <path id="svg_122" fill="#B0BEC5" d="m60.28,222.88l0,4.5a1.77,1.77 0 0 0 1.77,1.77l30.79,0a1.77,1.77 0 0 0 1.77,-1.77l0,-4.5l-34.33,0z"/>
    <g id="svg_123" opacity="0.4">
     <polygon id="svg_124" points="62.94999694824219,229.14999389648438 63.19999694824219,230.57998657226562 91.61000061035156,232.6099853515625 92.33000183105469,229.14999389648438 62.94999694824219,229.14999389648438 "/>
    </g>
    <path id="svg_125" fill="#455a64" d="m71.45,222.86c-4.53,-2.62 -7,-8.72 -7.13,-13.71s1.9,-10.21 6,-13.07a13.69,13.69 0 0 1 14.88,-0.08a15.48,15.48 0 0 1 6.8,13.41a17.84,17.84 0 0 1 -7.3,13.4"/>
    <path id="svg_126" fill="#263238" d="m78.67,223.35a5.93,5.93 0 0 1 -0.09,-1.15c0,-0.81 0,-1.86 -0.09,-3.11c-0.06,-2.63 -0.17,-6.26 -0.34,-10.27s-0.39,-7.64 -0.56,-10.26c-0.07,-1.25 -0.14,-2.3 -0.18,-3.11a6,6 0 0 1 0,-1.15a6.07,6.07 0 0 1 0.18,1.13c0.09,0.74 0.2,1.79 0.32,3.11c0.24,2.62 0.5,6.25 0.68,10.26s0.23,7.65 0.22,10.29c0,1.31 0,2.38 0,3.11a6.65,6.65 0 0 1 -0.14,1.15z"/>
    <path id="svg_127" fill="#263238" d="m65.66,208a3.32,3.32 0 0 1 -1.61,0.08c-0.88,-0.08 -1.59,-0.23 -1.58,-0.35a3.32,3.32 0 0 1 1.61,-0.08c0.92,0.1 1.59,0.25 1.58,0.35z"/>
    <path id="svg_128" fill="#263238" d="m65.91,203.54c0,0.1 -0.67,-0.07 -1.39,-0.39s-1.27,-0.66 -1.22,-0.77s0.67,0.06 1.39,0.38s1.31,0.67 1.22,0.78z"/>
    <path id="svg_129" fill="#263238" d="m68.21,200.21c-0.06,0.1 -0.76,-0.23 -1.48,-0.84s-1.19,-1.22 -1.1,-1.3s0.66,0.39 1.37,1s1.28,1.04 1.21,1.14z"/>
    <path id="svg_130" fill="#263238" d="m70.53,197.07c-0.11,0.05 -0.44,-0.48 -0.75,-1.17s-0.47,-1.29 -0.36,-1.34s0.44,0.48 0.75,1.17s0.47,1.27 0.36,1.34z"/>
    <path id="svg_131" fill="#263238" d="m74.17,194.84c-0.11,0 -0.47,-0.5 -0.71,-1.28s-0.26,-1.43 -0.14,-1.45s0.32,0.58 0.55,1.33s0.41,1.36 0.3,1.4z"/>
    <path id="svg_132" fill="#263238" d="m80.24,192.34c0.11,0 0,0.51 -0.15,1.06s-0.44,1 -0.55,0.92s-0.05,-0.51 0.15,-1.06s0.44,-0.96 0.55,-0.92z"/>
    <path id="svg_133" fill="#263238" d="m84.74,194.27c0.08,0.08 -0.21,0.48 -0.64,0.88s-0.86,0.66 -0.94,0.58s0.21,-0.49 0.65,-0.89s0.85,-0.66 0.93,-0.57z"/>
    <path id="svg_134" fill="#263238" d="m88.71,196.83c0.06,0.09 -0.29,0.45 -0.79,0.79s-1,0.53 -1,0.43s0.29,-0.45 0.79,-0.79s0.93,-0.53 1,-0.43z"/>
    <path id="svg_135" fill="#263238" d="m91.52,200.64c0,0.11 -0.51,0.45 -1.24,0.76s-1.36,0.48 -1.41,0.37s0.51,-0.45 1.24,-0.76s1.36,-0.47 1.41,-0.37z"/>
    <path id="svg_136" fill="#263238" d="m92.63,204.81c0,0.11 -0.55,0.28 -1.26,0.37s-1.3,0.06 -1.32,-0.06s0.55,-0.28 1.26,-0.37s1.3,-0.06 1.32,0.06z"/>
    <path id="svg_137" fill="#263238" d="m93.2,209.93c0,0.11 -0.64,-0.05 -1.34,-0.35s-1.22,-0.64 -1.17,-0.75s0.64,0.06 1.34,0.36s1.22,0.63 1.17,0.74z"/>
    <path id="svg_138" fill="#263238" d="m92.7,214.33a2.67,2.67 0 0 1 -1.6,-0.6c-0.79,-0.52 -1.26,-1.14 -1.18,-1.22s0.66,0.38 1.42,0.86s1.4,0.84 1.36,0.96z"/>
    <path id="svg_139" fill="#263238" d="m90.41,218.33c-0.07,0.09 -0.68,-0.27 -1.26,-0.89s-0.89,-1.26 -0.8,-1.32s0.55,0.43 1.11,1s1.02,1.12 0.95,1.21z"/>
    <path id="svg_140" fill="#263238" d="m68.67,218.8c0,0.1 -0.58,0.54 -1.42,1a3.76,3.76 0 0 1 -1.62,0.6c0,-0.1 0.59,-0.54 1.42,-1s1.57,-0.71 1.62,-0.6z"/>
    <path id="svg_141" fill="#263238" d="m66.69,215.18c0,0.1 -0.47,0.44 -1.14,0.75s-1.27,0.47 -1.32,0.36s0.46,-0.44 1.14,-0.75s1.27,-0.47 1.32,-0.36z"/>
    <path id="svg_142" fill="#263238" d="m65.23,212c0,0.12 -0.62,0.3 -1.41,0.41s-1.44,0.11 -1.46,0s0.61,-0.3 1.4,-0.41s1.45,-0.14 1.47,0z"/>
    <path id="svg_143" fill="#263238" d="m70,210.2c0,0.11 -0.57,0.4 -1.39,0.49s-1.48,-0.05 -1.47,-0.16s0.65,-0.17 1.42,-0.26s1.44,-0.18 1.44,-0.07z"/>
    <path id="svg_144" fill="#263238" d="m74,206.25c0,0.11 -0.45,0.35 -1.11,0.42s-1.18,-0.08 -1.17,-0.2s0.52,-0.16 1.13,-0.23s1.15,-0.11 1.15,0.01z"/>
    <path id="svg_145" fill="#263238" d="m74.75,203.08c0,0.11 -0.57,0 -1.18,-0.19s-1.08,-0.47 -1,-0.58s0.57,0 1.18,0.18s1.04,0.51 1,0.59z"/>
    <path id="svg_146" fill="#263238" d="m76.21,199.87c-0.08,0.08 -0.45,-0.16 -0.7,-0.61s-0.29,-0.88 -0.18,-0.91s0.31,0.3 0.54,0.7s0.42,0.74 0.34,0.82z"/>
    <path id="svg_147" fill="#263238" d="m74.45,213c0,0.11 -0.43,0.32 -1,0.46a3.58,3.58 0 0 1 -0.86,0.13l-0.08,-0.25c0.15,0 0.25,0 0.27,0s0,0.12 -0.17,0.21l-0.08,-0.24a4,4 0 0 1 0.82,-0.29c0.57,-0.11 1.07,-0.14 1.1,-0.02z"/>
    <path id="svg_148" fill="#263238" d="m75.27,218.62c0,0.11 -0.54,0.44 -1.3,0.73s-1.41,0.46 -1.46,0.35s0.54,-0.44 1.3,-0.74s1.42,-0.45 1.46,-0.34z"/>
    <path id="svg_149" fill="#263238" d="m70.78,216.12c0,0.11 -0.35,0.34 -0.87,0.52s-1,0.23 -1,0.12s0.35,-0.35 0.86,-0.52s0.97,-0.24 1.01,-0.12z"/>
    <path id="svg_150" fill="#263238" d="m71.12,204.68c0,0.11 -0.7,0 -1.48,-0.23s-1.35,-0.65 -1.3,-0.76s0.68,0.09 1.44,0.36s1.37,0.51 1.34,0.63z"/>
    <path id="svg_151" fill="#263238" d="m82,203.44c0.07,0.09 -0.31,0.46 -0.85,0.81s-1,0.56 -1.08,0.46s0.31,-0.46 0.85,-0.81s1.01,-0.56 1.08,-0.46z"/>
    <path id="svg_152" fill="#263238" d="m82.58,209.08c0,0.11 -0.37,0.29 -0.89,0.4s-1,0.1 -1,0s0.38,-0.3 0.89,-0.4s0.98,-0.08 1,0z"/>
    <path id="svg_153" fill="#263238" d="m83.27,215.43c0,0.1 -0.63,-0.06 -1.29,-0.37s-1.15,-0.64 -1.11,-0.74s0.63,0.05 1.29,0.36s1.16,0.64 1.11,0.75z"/>
    <path id="svg_154" fill="#263238" d="m81.82,221.6c-0.09,0.08 -0.47,-0.23 -0.84,-0.68s-0.6,-0.88 -0.51,-0.95s0.47,0.23 0.84,0.68s0.6,0.88 0.51,0.95z"/>
    <path id="svg_155" fill="#263238" d="m81.52,199.28c0.07,0.09 -0.18,0.4 -0.6,0.61s-0.82,0.23 -0.85,0.12s0.28,-0.3 0.66,-0.49s0.72,-0.33 0.79,-0.24z"/>
    <path id="svg_156" fill="#263238" d="m86.85,205c0,0.11 -0.46,0.38 -1.13,0.47s-1.22,0 -1.22,-0.14s0.53,-0.19 1.16,-0.28s1.15,-0.19 1.19,-0.05z"/>
    <path id="svg_157" fill="#263238" d="m85.79,199.86c0,0.11 -0.44,0.46 -1.14,0.68s-1.3,0.22 -1.31,0.11s0.52,-0.3 1.18,-0.52s1.21,-0.37 1.27,-0.27z"/>
    <path id="svg_158" fill="#263238" d="m88,212.89a3.24,3.24 0 0 1 -1.85,0a3.2,3.2 0 0 1 -1.73,-0.65a5.91,5.91 0 0 1 1.81,0.23a5.67,5.67 0 0 1 1.77,0.42z"/>
    <path id="svg_159" fill="#263238" d="m86,220.31c-0.07,0.09 -0.69,-0.27 -1.3,-0.89s-1,-1.24 -0.89,-1.31s0.59,0.41 1.19,1s1.1,1.11 1,1.2z"/>
    <path id="svg_160" fill="#263238" d="m77.32,193.82a19.14,19.14 0 0 0 -3.71,2.94a18.09,18.09 0 0 0 -4.61,10.24a22.6,22.6 0 0 0 0.28,6.27a48.19,48.19 0 0 0 1.17,5c0.41,1.42 0.78,2.55 1,3.34a7.08,7.08 0 0 1 0.36,1.23a7.56,7.56 0 0 1 -0.51,-1.17c-0.3,-0.78 -0.72,-1.9 -1.16,-3.31a41.92,41.92 0 0 1 -1.28,-5a23,23 0 0 1 -0.31,-6.39a17.82,17.82 0 0 1 4.83,-10.39a13.09,13.09 0 0 1 2.78,-2.16a7.57,7.57 0 0 1 0.84,-0.45a1.31,1.31 0 0 1 0.32,-0.15z"/>
    <path id="svg_161" fill="#263238" d="m83.11,223.14c-0.1,-0.05 1,-1.66 1.9,-4.56a25.8,25.8 0 0 0 1.14,-11.7a22.05,22.05 0 0 0 -1.81,-6.25a14.6,14.6 0 0 0 -3.07,-4.28a11.09,11.09 0 0 0 -3,-1.91c-0.78,-0.33 -1.25,-0.4 -1.25,-0.44a1.52,1.52 0 0 1 0.35,0a5.7,5.7 0 0 1 1,0.26a10.33,10.33 0 0 1 3.15,1.83a14.52,14.52 0 0 1 3.24,4.35a21.72,21.72 0 0 1 1.87,6.35a24.75,24.75 0 0 1 -1.28,11.86c-0.24,0.73 -0.54,1.36 -0.77,1.93s-0.5,1 -0.71,1.4a9.76,9.76 0 0 1 -0.76,1.16z"/>
    <path id="svg_162" fill="#B0BEC5" d="m355.66,365.88c-7.46,2.61 -17.18,0.28 -23.56,-4.38s-11,-11.32 -15,-18.09c-1.73,-2.89 -3.43,-5.9 -4,-9.22s0.26,-7.07 2.83,-9.24c4,-3.37 10.15,-1.66 14.7,0.93a50.69,50.69 0 0 1 25,40"/>
    <path id="svg_163" fill="#B0BEC5" d="m347.65,383.72c-4.47,5.91 -12.16,8.54 -19.56,8.88s-14.72,-1.7 -21.64,-4.36c-2.51,-1 -5.26,-2.28 -6.12,-4.83a6.16,6.16 0 0 1 1.31,-5.7a12.91,12.91 0 0 1 5,-3.4a34.12,34.12 0 0 1 21.78,-1.18c7.16,1.86 13.42,6 19.23,10.59"/>
    <path id="svg_164" fill="#B0BEC5" d="m355.77,334c-6.17,0.13 -10.84,-5.28 -13.64,-10.78a39.93,39.93 0 0 1 -3.67,-24.93c0.56,-3.15 1.75,-6.55 4.58,-8.06s6.59,-0.53 9,1.66s3.72,5.33 4.68,8.44c3.31,10.72 2.6,23 -1,33.67"/>
    <path id="svg_165" fill="#B0BEC5" d="m376,368.08c-10.52,-17.91 -12.27,-39.81 -6.06,-59.63c1,-3.21 2.91,-6.89 6.27,-7.1c3.73,-0.24 6.06,3.91 7.09,7.5c3.61,12.58 2.84,25.95 2,39c-0.49,8.05 -3.25,14.93 -9.34,20.22"/>
    <path id="svg_166" fill="#B0BEC5" d="m387,375.44a43,43 0 0 1 25.53,-27.07c2.79,-1.05 6.34,-1.65 8.43,0.49s1.41,5.6 0.1,8.22c-2.12,4.23 -5.56,7.62 -9,10.88c-3.12,3 -6.36,6 -10.3,7.67s-11.18,2.16 -14.78,-0.19"/>
    <path id="svg_167" fill="#263238" d="m321.75,329.45l0.18,0.16l0.57,0.44l2.21,1.65l1.6,1.18c0.57,0.44 1.17,1 1.83,1.49c1.3,1.09 2.84,2.26 4.39,3.73l2.48,2.26c0.86,0.79 1.68,1.67 2.58,2.56c1.81,1.74 3.56,3.77 5.45,5.87a116.28,116.28 0 0 1 19.22,31.1c1,2.63 2.07,5.11 2.82,7.51c0.39,1.19 0.82,2.33 1.14,3.45s0.61,2.19 0.9,3.22c0.63,2 1,3.95 1.38,5.6c0.18,0.82 0.37,1.59 0.52,2.3s0.23,1.37 0.34,2c0.2,1.15 0.37,2.05 0.49,2.71c0,0.29 0.1,0.52 0.13,0.7a1,1 0 0 0 0.07,0.24a1.08,1.08 0 0 0 0,-0.24c0,-0.19 -0.06,-0.42 -0.1,-0.71c-0.09,-0.67 -0.23,-1.58 -0.39,-2.73l-0.3,-2c-0.13,-0.72 -0.31,-1.49 -0.48,-2.32c-0.37,-1.66 -0.7,-3.57 -1.31,-5.63c-0.28,-1 -0.57,-2.12 -0.88,-3.24s-0.73,-2.28 -1.11,-3.48c-0.73,-2.41 -1.76,-4.9 -2.78,-7.54a125,125 0 0 0 -8.38,-16.4a123.16,123.16 0 0 0 -10.93,-14.83c-1.9,-2.1 -3.67,-4.13 -5.5,-5.86c-0.9,-0.88 -1.74,-1.77 -2.61,-2.55l-2.51,-2.24c-1.57,-1.46 -3.13,-2.62 -4.45,-3.69c-0.67,-0.52 -1.28,-1 -1.86,-1.46l-1.63,-1.15l-2.27,-1.55l-0.6,-0.4q-0.19,-0.16 -0.21,-0.15z"/>
    <path id="svg_168" fill="#263238" d="m307.82,379.07a3.27,3.27 0 0 0 0.72,-0.12c0.47,-0.08 1.16,-0.26 2,-0.41a57.44,57.44 0 0 1 7.62,-0.93a55.59,55.59 0 0 1 45.12,18.77a58.51,58.51 0 0 1 4.71,6.06c0.52,0.74 0.88,1.36 1.15,1.75a5.59,5.59 0 0 0 0.42,0.6a3.06,3.06 0 0 0 -0.34,-0.65c-0.24,-0.41 -0.57,-1 -1.07,-1.8a51.72,51.72 0 0 0 -4.6,-6.19a54.7,54.7 0 0 0 -45.41,-18.89a50.34,50.34 0 0 0 -7.64,1.09c-0.89,0.18 -1.57,0.39 -2,0.51a5.09,5.09 0 0 0 -0.68,0.21z"/>
    <path id="svg_169" fill="#263238" d="m346.67,297.32a1.35,1.35 0 0 0 0,0.28c0.05,0.21 0.1,0.47 0.17,0.81c0.17,0.73 0.4,1.77 0.69,3.08c0.61,2.67 1.53,6.53 2.69,11.3c2.32,9.53 5.69,22.65 9.2,37.19c1.74,7.28 3.32,14.23 4.68,20.57s2.47,12.07 3.32,16.9c0.45,2.4 0.79,4.6 1.12,6.52s0.58,3.57 0.78,4.93s0.37,2.37 0.49,3.12c0,0.33 0.1,0.6 0.14,0.81a1,1 0 0 0 0.06,0.27a1.47,1.47 0 0 0 0,-0.28c0,-0.21 -0.06,-0.48 -0.09,-0.82c-0.1,-0.75 -0.23,-1.8 -0.4,-3.13s-0.39,-3 -0.7,-4.95s-0.61,-4.12 -1.05,-6.53c-0.8,-4.84 -1.9,-10.58 -3.21,-16.93s-2.91,-13.31 -4.65,-20.59c-3.51,-14.55 -6.93,-27.66 -9.34,-37.17c-1.19,-4.73 -2.16,-8.56 -2.84,-11.26c-0.33,-1.3 -0.6,-2.32 -0.78,-3.06c-0.09,-0.32 -0.16,-0.59 -0.22,-0.79a1.1,1.1 0 0 0 -0.06,-0.27z"/>
    <path id="svg_170" fill="#263238" d="m370.83,401.66a0.66,0.66 0 0 0 0.06,-0.22l0.15,-0.64c0.13,-0.61 0.3,-1.44 0.52,-2.49c0.44,-2.17 1,-5.31 1.71,-9.21c1.35,-7.79 3,-18.61 3.93,-30.64c0.48,-6 0.74,-11.76 0.86,-17s0,-9.94 -0.12,-13.89c-0.05,-2 -0.18,-3.76 -0.27,-5.33s-0.19,-2.92 -0.29,-4s-0.18,-1.91 -0.23,-2.53c0,-0.27 -0.06,-0.48 -0.08,-0.66a0.74,0.74 0 0 0 0,-0.22a0.72,0.72 0 0 0 0,0.22c0,0.18 0,0.4 0,0.67c0,0.62 0.08,1.47 0.14,2.54s0.15,2.45 0.21,4s0.16,3.35 0.19,5.32c0.11,4 0.12,8.65 0,13.87s-0.42,11 -0.89,17c-1,12 -2.53,22.83 -3.79,30.62c-0.63,3.9 -1.16,7.06 -1.55,9.23c-0.18,1.06 -0.32,1.9 -0.43,2.51c0,0.26 -0.07,0.48 -0.1,0.66a0.53,0.53 0 0 0 -0.02,0.19z"/>
    <path id="svg_171" fill="#263238" d="m370.05,403.94a3.33,3.33 0 0 0 0.27,-0.62l0.7,-1.8l0.49,-1.31c0.21,-0.46 0.43,-1 0.68,-1.51s0.49,-1.12 0.77,-1.74s0.62,-1.24 1,-1.9l1.04,-2.06l1.28,-2.2c0.84,-1.55 1.93,-3.08 3,-4.75a114.77,114.77 0 0 1 7.92,-10.13a123.86,123.86 0 0 1 9.1,-9.1c1.51,-1.27 2.89,-2.55 4.29,-3.62l2,-1.58l1.89,-1.4c1.2,-0.9 2.32,-1.66 3.31,-2.32s1.83,-1.24 2.55,-1.68l1.63,-1a2.88,2.88 0 0 0 0.55,-0.39a3.39,3.39 0 0 0 -0.6,0.31l-1.68,0.95c-0.74,0.41 -1.61,1 -2.61,1.61s-2.14,1.38 -3.35,2.27l-1.92,1.37l-2,1.57c-1.41,1.06 -2.81,2.33 -4.34,3.6a120.53,120.53 0 0 0 -9.16,9.11a108.75,108.75 0 0 0 -7.93,10.2c-1.05,1.69 -2.13,3.24 -3,4.8l-1.26,2.23l-1,2.11c-0.32,0.68 -0.67,1.31 -0.93,1.93l-0.74,1.76l-0.64,1.54c-0.16,0.48 -0.32,0.92 -0.46,1.32c-0.25,0.76 -0.45,1.37 -0.6,1.84a3.32,3.32 0 0 0 -0.25,0.59z"/>
    <path id="svg_172" fill="#263238" d="m325.65,350.21c0,0.08 1.28,0.08 3.33,0.19a59.31,59.31 0 0 1 15.68,3c1.94,0.65 3.13,1.11 3.16,1a3.49,3.49 0 0 0 -0.82,-0.4c-0.52,-0.25 -1.29,-0.57 -2.26,-0.94a47.6,47.6 0 0 0 -15.78,-3c-1,0 -1.87,0 -2.45,0.05a3.48,3.48 0 0 0 -0.86,0.1z"/>
    <path id="svg_173" fill="#263238" d="m317.72,389a30.25,30.25 0 0 1 4.33,-6.53a29.92,29.92 0 0 1 6.19,-4.8a7.44,7.44 0 0 0 -2.14,0.94a19.26,19.26 0 0 0 -4.42,3.52a18.78,18.78 0 0 0 -3.18,4.67a6.85,6.85 0 0 0 -0.78,2.2z"/>
    <path id="svg_174" fill="#263238" d="m344.78,311.86c-0.1,0.1 1.84,2 4,4.63s3.61,4.87 3.74,4.8a29.61,29.61 0 0 0 -7.69,-9.43l-0.05,0z"/>
    <path id="svg_175" fill="#263238" d="m351.13,300.88a18.92,18.92 0 0 0 -0.95,4.15a17.85,17.85 0 0 0 -0.47,4.24a18.92,18.92 0 0 0 1,-4.15a17.85,17.85 0 0 0 0.42,-4.24z"/>
    <path id="svg_176" fill="#263238" d="m370.81,335.33a53.37,53.37 0 0 0 3.08,6.48a54.38,54.38 0 0 0 3.52,6.25a50.15,50.15 0 0 0 -3.08,-6.48a49.23,49.23 0 0 0 -3.52,-6.25z"/>
    <path id="svg_177" fill="#263238" d="m382.53,323.63a28.76,28.76 0 0 0 -2.61,4.69a29.59,29.59 0 0 0 -2.17,4.91a58.57,58.57 0 0 0 4.78,-9.6z"/>
    <path id="svg_178" fill="#263238" d="m399.74,363.62c0,0.15 2.12,-0.26 4.73,-0.44s4.73,-0.08 4.74,-0.23a19.18,19.18 0 0 0 -9.47,0.67z"/>
    <path id="svg_179" fill="#263238" d="m388,399l-5.86,30.8a4.32,4.32 0 0 1 -4.24,3.51l-17.3,0a4.31,4.31 0 0 1 -4.26,-3.61l-5.1,-30.7l36.76,0z"/>
    <polygon id="svg_180" fill="#455a64" points="386.0799865722656,408.989990234375 353,408.989990234375 351.239990234375,398.9800109863281 387.989990234375,398.9800109863281 386.0799865722656,408.989990234375 "/>
    <polygon id="svg_181" fill="#fafafa" points="386.0799865722656,408.989990234375 385.3900146484375,412.6400146484375 353.5,412.6400146484375 353,408.989990234375 386.0799865722656,408.989990234375 "/>
   </g>
  </g>
  <g id="freepik--Clock--inject-211">
   <circle transform="rotate(-45 -66.68 59.72)" id="svg_182" fill="#B0BEC5" r="40.07" cy="143.2" cx="36.94"/>
   <circle transform="rotate(-56.57 -61.03 85.75)" id="svg_183" fill="#fafafa" r="37.83" cy="169.02" cx="42.44"/>
   <path id="svg_184" fill="#263238" d="m27.72,42.79s0,0.21 0,0.62l0,1.8c0,0.39 0,0.84 0,1.32s0.09,1 0.14,1.59l0.14,1.88c0,0.67 0.24,1.35 0.36,2.09a36.08,36.08 0 0 0 3.52,10.29a37.82,37.82 0 0 0 8.87,11.28l1.57,1.34c0.55,0.41 1.13,0.79 1.7,1.2s1.13,0.84 1.76,1.17l1.89,1.07l1,0.53l1,0.45l2.07,0.91c0.7,0.28 1.44,0.48 2.17,0.73a18.67,18.67 0 0 0 2.24,0.67a35.63,35.63 0 0 0 4.71,0.86c0.8,0.08 1.61,0.21 2.44,0.25l2.49,0c0.42,0 0.84,0 1.26,0l1.26,-0.11c0.84,-0.09 1.7,-0.13 2.55,-0.25a41,41 0 0 0 10.13,-3c0.82,-0.37 1.61,-0.83 2.43,-1.24c0.4,-0.22 0.82,-0.4 1.21,-0.66l1.15,-0.75a42.23,42.23 0 0 0 4.5,-3.34a43.92,43.92 0 0 0 4,-4.1l0.93,-1.1l0.84,-1.18l0.83,-1.2a9.21,9.21 0 0 0 0.79,-1.23l1.44,-2.56l1.2,-2.71a40.42,40.42 0 0 0 2.69,-11.67a40.47,40.47 0 0 0 -1.16,-12c-0.28,-1 -0.56,-1.9 -0.83,-2.84l-1.1,-2.73a9.44,9.44 0 0 0 -0.62,-1.33l-0.67,-1.29l-0.68,-1.28l-0.78,-1.21a43.16,43.16 0 0 0 -3.39,-4.59a41,41 0 0 0 -4,-3.9l-1,-0.9c-0.34,-0.3 -0.74,-0.54 -1.11,-0.81c-0.75,-0.51 -1.48,-1.07 -2.24,-1.55a41.27,41.27 0 0 0 -4.75,-2.47a39.73,39.73 0 0 0 -4.91,-1.8c-0.83,-0.22 -1.67,-0.38 -2.5,-0.57l-1.24,-0.28c-0.41,-0.08 -0.83,-0.1 -1.24,-0.16l-2.48,-0.29c-0.82,-0.07 -1.64,0 -2.45,-0.07a34.24,34.24 0 0 0 -4.85,0.33a19.49,19.49 0 0 0 -2.31,0.36c-0.76,0.16 -1.52,0.26 -2.25,0.45l-2.16,0.63l-1.07,0.31l-1,0.41l-2,0.8c-0.67,0.26 -1.28,0.64 -1.9,0.94s-1.25,0.63 -1.84,1l-1.71,1.1a37.61,37.61 0 0 0 -10.32,10a35.68,35.68 0 0 0 -4.84,9.74a19.23,19.23 0 0 0 -0.63,2c-0.15,0.65 -0.29,1.26 -0.41,1.82s-0.26,1.08 -0.35,1.56s-0.11,0.92 -0.16,1.31c-0.1,0.77 -0.18,1.37 -0.24,1.79s-0.09,0.6 -0.09,0.6s0,-0.2 0,-0.61s0.1,-1 0.18,-1.79c0,-0.4 0.09,-0.84 0.14,-1.32s0.21,-1 0.32,-1.57s0.26,-1.18 0.4,-1.83a19.92,19.92 0 0 1 0.6,-2a36.09,36.09 0 0 1 4.8,-9.83a37.76,37.76 0 0 1 10.33,-10.26l1.72,-1.12c0.6,-0.34 1.23,-0.65 1.85,-1s1.24,-0.7 1.92,-1l2,-0.82l1,-0.41l1.13,-0.26l2.19,-0.64c0.74,-0.2 1.51,-0.31 2.27,-0.46a18.12,18.12 0 0 1 2.34,-0.38a35,35 0 0 1 4.83,-0.25c0.82,0 1.65,0 2.48,0.06l2.51,0.29c0.42,0.05 0.84,0.08 1.26,0.16l1.26,0.27c0.83,0.2 1.69,0.35 2.53,0.58a40.62,40.62 0 0 1 5,1.81a40.11,40.11 0 0 1 4.82,2.5c0.77,0.48 1.51,1 2.27,1.56c0.37,0.28 0.78,0.52 1.13,0.82l1.06,0.91a42.06,42.06 0 0 1 4.08,3.94a43,43 0 0 1 3.44,4.65l0.8,1.23l0.68,1.3l0.68,1.31a9.11,9.11 0 0 1 0.63,1.34l1.11,2.77c0.28,1 0.57,1.91 0.85,2.88a40.55,40.55 0 0 1 1.17,12.12a40.29,40.29 0 0 1 -2.75,11.87c-0.4,0.92 -0.81,1.83 -1.21,2.74s-1,1.74 -1.47,2.6a9.13,9.13 0 0 1 -0.8,1.25l-0.84,1.21l-0.85,1.2l-1,1.11a43.84,43.84 0 0 1 -4,4.15a42,42 0 0 1 -4.56,3.38l-1.17,0.76c-0.39,0.26 -0.82,0.44 -1.22,0.66c-0.83,0.42 -1.63,0.88 -2.47,1.26a42.2,42.2 0 0 1 -10.26,3c-0.86,0.11 -1.73,0.16 -2.58,0.24l-1.28,0.11c-0.43,0 -0.86,0 -1.28,0l-2.52,0c-0.83,0 -1.65,-0.18 -2.47,-0.26a35.09,35.09 0 0 1 -4.76,-0.88a21.08,21.08 0 0 1 -2.26,-0.68c-0.74,-0.26 -1.49,-0.46 -2.2,-0.75l-2.08,-0.93l-1,-0.46l-1,-0.54l-1.91,-1.08c-0.63,-0.34 -1.19,-0.81 -1.77,-1.2s-1.16,-0.8 -1.71,-1.22l-1.56,-1.33a37.78,37.78 0 0 1 -8.87,-11.43a35.84,35.84 0 0 1 -3.47,-10.38c-0.11,-0.75 -0.31,-1.44 -0.34,-2.11s-0.1,-1.28 -0.14,-1.86s-0.11,-1.11 -0.12,-1.6s0,-0.93 0,-1.33c0,-0.78 0,-1.38 0.05,-1.8a5.92,5.92 0 0 1 0.09,-0.68z"/>
   <path id="svg_185" fill="#263238" d="m65.37,13.65a10.29,10.29 0 0 1 0.25,3.18a10.24,10.24 0 0 1 -0.25,3.18a10.82,10.82 0 0 1 -0.24,-3.18a10.88,10.88 0 0 1 0.24,-3.18z"/>
   <path id="svg_186" fill="#263238" d="m82.61,18.76a10.75,10.75 0 0 1 -2,2.39a10.75,10.75 0 0 1 -2.39,2a10,10 0 0 1 2,-2.39a10,10 0 0 1 2.39,-2z"/>
   <path id="svg_187" fill="#263238" d="m92.69,29.77a13.75,13.75 0 0 1 -2.61,1.74a13.33,13.33 0 0 1 -2.74,1.49a8.42,8.42 0 0 1 2.49,-1.93a8.18,8.18 0 0 1 2.86,-1.3z"/>
   <path id="svg_188" fill="#263238" d="m98.59,46.11a19.94,19.94 0 0 1 -4.33,0.24a19.94,19.94 0 0 1 -4.33,-0.24a18.85,18.85 0 0 1 4.33,-0.25a18.85,18.85 0 0 1 4.33,0.25z"/>
   <path id="svg_189" fill="#263238" d="m38.5,45.53a16.82,16.82 0 0 1 -4.09,0.25a16.82,16.82 0 0 1 -4.09,-0.25a17.8,17.8 0 0 1 4.09,-0.24a17.8,17.8 0 0 1 4.09,0.24z"/>
   <path id="svg_190" fill="#263238" d="m42.75,57.69a17.29,17.29 0 0 1 -3.09,2.81a17.65,17.65 0 0 1 -3.4,2.42a18.4,18.4 0 0 1 3.09,-2.8a18.41,18.41 0 0 1 3.4,-2.43z"/>
   <path id="svg_191" fill="#263238" d="m53.24,67.1a29.11,29.11 0 0 1 -2.11,3.65a28.42,28.42 0 0 1 -2.23,3.57a13.55,13.55 0 0 1 1.81,-3.82a13.69,13.69 0 0 1 2.53,-3.4z"/>
   <path id="svg_192" fill="#263238" d="m65.37,79.24a20,20 0 0 1 -0.24,-4.34a19.94,19.94 0 0 1 0.24,-4.33a18.85,18.85 0 0 1 0.25,4.33a18.9,18.9 0 0 1 -0.25,4.34z"/>
   <path id="svg_193" fill="#263238" d="m84.05,73.46a18.75,18.75 0 0 1 -6.48,-5.65a40.12,40.12 0 0 1 3.23,2.83a39.15,39.15 0 0 1 3.25,2.82z"/>
   <path id="svg_194" fill="#263238" d="m92.82,64a14.63,14.63 0 0 1 -2.82,-2.5a15.7,15.7 0 0 1 -2.53,-2.87a14.63,14.63 0 0 1 2.87,2.52a15.34,15.34 0 0 1 2.48,2.85z"/>
   <path id="svg_195" fill="#263238" d="m42.36,33.88a12,12 0 0 1 -2.54,-2.19a11.48,11.48 0 0 1 -2.18,-2.53a11.38,11.38 0 0 1 2.53,2.19a11.79,11.79 0 0 1 2.19,2.53z"/>
   <path id="svg_196" fill="#263238" d="m53.17,22.48a11,11 0 0 1 -2.48,-2.13a11.48,11.48 0 0 1 -2.15,-2.48a11,11 0 0 1 2.46,2.13a11.17,11.17 0 0 1 2.17,2.48z"/>
   <path id="svg_197" fill="#263238" d="m65.47,25.36a7.39,7.39 0 0 1 0.1,1.36c0,1 0.05,2.21 0.08,3.69c0,3.12 0.08,7.43 0.08,12.19c0,0.91 0,1.81 0,2.67l0,0.42l-0.37,-0.19c-3.68,-1.86 -6.92,-3.53 -9.23,-4.74l-2.71,-1.45a5.28,5.28 0 0 1 -1,-0.58a5.12,5.12 0 0 1 1,0.41l2.77,1.32c2.35,1.13 5.62,2.73 9.31,4.58l-0.37,0.23c0,-0.86 0,-1.76 0,-2.67c0,-4.76 0,-9.07 0.08,-12.19c0,-1.48 0.06,-2.72 0.08,-3.69a6.74,6.74 0 0 1 0.18,-1.36z"/>
  </g>
  <g id="freepik--Device--inject-211">
   <path id="svg_198" fill="#e0e0e0" d="m119.66,208.39l18.34,40.5a6,6 0 0 0 4.9,3.06l84.48,-0.11l0,0a3.59,3.59 0 0 0 -3.48,-3.16l-32.06,-0.7l-16.44,-39.38a3.38,3.38 0 0 0 -3.1,-2.09l-51.16,-0.39a1.6,1.6 0 0 0 -1.48,2.27z"/>
   <path id="svg_199" fill="#263238" d="m119.66,208.39a1.17,1.17 0 0 1 -0.15,-0.47a1.62,1.62 0 0 1 0.45,-1.36a1.6,1.6 0 0 1 1,-0.48c0.41,0 0.84,0 1.31,0l3.26,0l21.06,0.08l14.79,0.08l8.32,0.05l2.17,0a4.05,4.05 0 0 1 2.23,0.48a3.65,3.65 0 0 1 1.54,1.75l0.87,2.09c4.71,11.27 10,23.81 15.56,37.26l-0.22,-0.15l17.33,0.37l9,0.2l4.58,0.1l1.16,0a3.86,3.86 0 0 1 3.11,1.77a4,4 0 0 1 0.59,1.62l0,0.29l-0.29,0l-52.62,0l-30.77,0c-0.43,0 -0.84,0 -1.28,0a5,5 0 0 1 -1.28,-0.24a6,6 0 0 1 -3.71,-3.2q-1,-2.19 -1.92,-4.27c-5,-11.13 -9,-20.12 -11.83,-26.36c-1.37,-3.1 -2.45,-5.51 -3.18,-7.17c-0.36,-0.81 -0.63,-1.43 -0.82,-1.87s-0.26,-0.64 -0.26,-0.64s0.11,0.21 0.31,0.62l0.86,1.85l3.28,7.13l12,26.29l1.94,4.26a5.57,5.57 0 0 0 3.49,3a6.94,6.94 0 0 0 2.43,0.23l7.87,0l22.93,-0.06l52.61,-0.09l-0.26,0.29a3.53,3.53 0 0 0 -0.5,-1.4a3.3,3.3 0 0 0 -1.65,-1.32a3.17,3.17 0 0 0 -1.05,-0.21l-1.15,0l-4.58,-0.11l-9,-0.2l-17.32,-0.38l-0.17,0l-0.06,-0.15c-5.59,-13.45 -10.81,-26 -15.5,-37.28l-0.87,-2.1a3.24,3.24 0 0 0 -1.35,-1.55a3.69,3.69 0 0 0 -2,-0.43l-2.17,0l-8.31,-0.07l-14.79,-0.15l-21.06,-0.23l-3.26,-0.05c-0.47,0 -0.91,0 -1.29,0a1.56,1.56 0 0 0 -0.93,0.43a1.6,1.6 0 0 0 -0.47,1.29a2.7,2.7 0 0 0 0.02,0.46z"/>
   <path id="svg_200" fill="#455a64" d="m190.24,252.3a1.84,1.84 0 0 1 -0.24,-0.44c-0.17,-0.35 -0.37,-0.79 -0.61,-1.31l-2.15,-4.85c-1.78,-4.11 -4.21,-9.8 -6.82,-16.12s-4.91,-12.06 -6.51,-16.25c-0.79,-2.09 -1.43,-3.79 -1.84,-5c-0.18,-0.55 -0.33,-1 -0.46,-1.37a1.71,1.71 0 0 1 -0.13,-0.49a1.73,1.73 0 0 1 0.23,0.45c0.15,0.36 0.33,0.8 0.56,1.33l2,4.92c1.73,4.21 4.06,9.9 6.65,16.18s4.94,12 6.67,16.18c0.82,2 1.49,3.68 2,4.91l0.52,1.35a1.47,1.47 0 0 1 0.13,0.51z"/>
   <path id="svg_201" fill="#fff" d="m157.11,228a2.62,2.62 0 1 1 -2.61,-2.62a2.61,2.61 0 0 1 2.61,2.62z"/>
  </g>
 </g>
</svg>