<svg width="340" height="340" xmlns="http://www.w3.org/2000/svg">

 <g>
  <title>Layer 1</title>
  <g id="freepik--background-simple--inject-8">
   <path id="svg_1" fill="#B0BEC5" d="m7.68,63.64084c-16.43,137.88 143.11,271.64 266.55,172.6c55.73,-44.71 95.71,-187.68 1.41,-208.62c-54.08,-12 -112.21,36 -163.76,17.11c-24.78,-9.07 -37.47,-44.76 -66.27,-41c-27.04,3.59 -35.19,36.93 -37.93,59.91z"/>
   <path id="svg_2" opacity="0.9" fill="#fff" d="m7.68,63.64084c-16.43,137.88 143.11,271.64 266.55,172.6c55.73,-44.71 95.71,-187.68 1.41,-208.62c-54.08,-12 -112.21,36 -163.76,17.11c-24.78,-9.07 -37.47,-44.76 -66.27,-41c-27.04,3.59 -35.19,36.93 -37.93,59.91z"/>
  </g>
  <g id="freepik--Character--inject-8">
   <path id="svg_3" fill="#e4897b" d="m54.36,113.39084c-0.88,2 -1.85,4.16 -2.7,6.27s-1.73,4.28 -2.5,6.44a91.35,91.35 0 0 0 -3.79,12.93l-0.29,1.6l-0.1,0.6c0,0.17 0,0.39 -0.06,0.59a24.53,24.53 0 0 0 0.06,2.92c0.19,2.11 0.53,4.37 1,6.63c0.84,4.53 1.91,9.2 3,13.8l-5.13,2a92.65,92.65 0 0 1 -6.09,-13.59a57,57 0 0 1 -2.12,-7.47a26.81,26.81 0 0 1 -0.56,-4.26c0,-0.4 0,-0.78 0,-1.21s0,-0.91 0.07,-1.19l0.2,-2a63,63 0 0 1 1.37,-7.65c0.56,-2.5 1.28,-4.93 2,-7.33s1.62,-4.76 2.57,-7.08c0.47,-1.16 1,-2.31 1.46,-3.46s1,-2.25 1.64,-3.48l9.97,4.94z"/>
   <path id="svg_4" fill="#e4897b" d="m48.71,163.82084l3.9,3.81l-8.51,4s-2.06,-3.61 -0.63,-6.87l5.24,-0.94z"/>
   <polygon id="svg_5" fill="#e4897b" points="55.75999450683594,173.300839304924 48.56999969482422,176.2408264875412 44.11000061035156,171.5908478498459 52.61000061035156,167.6308411359787 55.75999450683594,173.300839304924 "/>
   <path id="svg_6" opacity="0.4" fill="#fafafa" d="m201.41,169.20084a72,72 0 1 1 79.59,-63.57a72,72 0 0 1 -79.59,63.57z"/>
   <path id="svg_7" opacity="0.4" fill="#fafafa" d="m253.79,40.92084l-109.5,87.49c-0.46,-1 -0.91,-2 -1.33,-3a71.24,71.24 0 0 1 -5.21,-20.48l0,0l94.58,-75.57a71.15,71.15 0 0 1 21.46,11.56z"/>
   <path id="svg_8" opacity="0.4" fill="#fafafa" d="m279.06,79.25084l-102.95,82.25a71.86,71.86 0 0 1 -24.77,-21.28l112.41,-89.82a72,72 0 0 1 15.31,28.85z"/>
   <path id="svg_9" fill="#B0BEC5" d="m128.39,70.13084l-0.95,-0.32a87.68,87.68 0 0 1 6.18,-14.05l0.87,0.48a86.93,86.93 0 0 0 -6.1,13.89zm12.14,-23.34l-0.81,-0.59a86.7,86.7 0 0 1 31.37,-26.21l0.45,0.9a85.74,85.74 0 0 0 -31.01,25.93l0,-0.03zm109.59,-24.53a83.6,83.6 0 0 0 -10.12,-4.59l0.36,-0.94a85.62,85.62 0 0 1 10.22,4.68l-0.46,0.85z"/>
   <path id="svg_10" opacity="0.3" d="m128.39,70.13084l-0.95,-0.32a87.68,87.68 0 0 1 6.18,-14.05l0.87,0.48a86.93,86.93 0 0 0 -6.1,13.89zm12.14,-23.34l-0.81,-0.59a86.7,86.7 0 0 1 31.37,-26.21l0.45,0.9a85.74,85.74 0 0 0 -31.01,25.93l0,-0.03zm109.59,-24.53a83.6,83.6 0 0 0 -10.12,-4.59l0.36,-0.94a85.62,85.62 0 0 1 10.22,4.68l-0.46,0.85z"/>
   <path id="svg_11" fill="#B0BEC5" d="m283.87,60.87084a83,83 0 0 0 -152.65,64.73c-6.68,2.34 -13.28,4.85 -19.84,7.44q-14.19,5.63 -28.12,11.76c-9.28,4.11 -18.52,8.3 -27.67,12.68c-4.59,2.15 -9.12,4.42 -13.69,6.62a19.79,19.79 0 0 0 -6.34,4.35a19.15,19.15 0 0 0 -2.57,3.37a17.25,17.25 0 0 0 -2,4.63a12.72,12.72 0 0 0 7.33,14.85a17.56,17.56 0 0 0 4.86,1.26a18.88,18.88 0 0 0 4.25,0a19.76,19.76 0 0 0 7.3,-2.39c4.53,-2.29 9.09,-4.5 13.59,-6.85c9,-4.59 18,-9.38 26.89,-14.24s17.79,-9.95 26.47,-15.17c6,-3.63 12.06,-7.34 18,-11.22a83,83 0 0 0 144.21,-81.82l-0.02,0zm-45.46,95.53a65.53,65.53 0 1 1 29.75,-87.78a65.53,65.53 0 0 1 -29.75,87.78z"/>
   <path id="svg_12" opacity="0.3" d="m283.87,60.87084a83,83 0 0 0 -152.65,64.73c-6.68,2.34 -13.28,4.85 -19.84,7.44q-14.19,5.63 -28.12,11.76c-9.28,4.11 -18.52,8.3 -27.67,12.68c-4.59,2.15 -9.12,4.42 -13.69,6.62a19.79,19.79 0 0 0 -6.34,4.35a19.15,19.15 0 0 0 -2.57,3.37a17.25,17.25 0 0 0 -2,4.63a12.72,12.72 0 0 0 7.33,14.85a17.56,17.56 0 0 0 4.86,1.26a18.88,18.88 0 0 0 4.25,0a19.76,19.76 0 0 0 7.3,-2.39c4.53,-2.29 9.09,-4.5 13.59,-6.85c9,-4.59 18,-9.38 26.89,-14.24s17.79,-9.95 26.47,-15.17c6,-3.63 12.06,-7.34 18,-11.22a83,83 0 0 0 144.21,-81.82l-0.02,0zm-45.46,95.53a65.53,65.53 0 1 1 29.75,-87.78a65.53,65.53 0 0 1 -29.75,87.78z"/>
   <path id="svg_13" fill="#263238" d="m82,77.68084c0,0.59 0.31,1.07 0.7,1.07s0.7,-0.48 0.7,-1.07s-0.31,-1.07 -0.7,-1.07s-0.7,0.52 -0.7,1.07z"/>
   <path id="svg_14" fill="#de5753" d="m82.28,78.75084a21.33,21.33 0 0 0 2.83,5.07a3.41,3.41 0 0 1 -2.83,0.53l0,-5.6z"/>
   <path id="svg_15" fill="#263238" d="m79.93,74.39084a0.37,0.37 0 0 1 -0.29,-0.14a0.36,0.36 0 0 1 0.08,-0.49a3.43,3.43 0 0 1 3.13,-0.53a0.35,0.35 0 1 1 -0.25,0.65a2.73,2.73 0 0 0 -2.47,0.45a0.36,0.36 0 0 1 -0.2,0.06z"/>
   <path id="svg_16" fill="#e4897b" d="m61.8,82.13084c1,5.37 2.1,15.22 -1.66,18.81c0,0 1.47,5.45 11.46,5.45c11,0 5.24,-5.45 5.24,-5.45c-6,-1.44 -5.83,-5.88 -4.79,-10.06l-10.25,-8.75z"/>
   <path id="svg_17" fill="#B0BEC5" d="m55.65,103.77084c1.19,-1.85 -0.81,-6.34 -0.81,-6.34s17.68,-4.45 24.91,2.38c1.5,1.41 -0.16,3.49 -0.16,3.49l-23.94,0.47z"/>
   <path id="svg_18" opacity="0.1" d="m55.65,103.77084c1.19,-1.85 -0.81,-6.34 -0.81,-6.34s17.68,-4.45 24.91,2.38c1.5,1.41 -0.16,3.49 -0.16,3.49l-23.94,0.47z"/>
   <path id="svg_19" fill="#B0BEC5" d="m26.4,307.80084c-0.93,0 -2.42,-1.55 -2.86,-2.13a0.17,0.17 0 0 1 0,-0.19a0.18,0.18 0 0 1 0.16,-0.09c0.11,0 2.56,0.22 3.23,1.09a0.81,0.81 0 0 1 0.16,0.66a0.72,0.72 0 0 1 -0.52,0.65l-0.17,0.01zm-2.32,-2c0.73,0.84 1.9,1.79 2.4,1.67c0,0 0.2,-0.05 0.26,-0.37a0.45,0.45 0 0 0 -0.1,-0.38a4.67,4.67 0 0 0 -2.56,-0.94l0,0.02z"/>
   <path id="svg_20" fill="#B0BEC5" d="m24.19,305.78084a2.68,2.68 0 0 1 -0.54,0a0.16,0.16 0 0 1 -0.14,-0.11a0.2,0.2 0 0 1 0,-0.18c0.07,-0.06 1.54,-1.59 2.65,-1.59l0,0a0.94,0.94 0 0 1 0.71,0.3a0.57,0.57 0 0 1 0.14,0.7c-0.29,0.56 -1.82,0.88 -2.82,0.88zm-0.13,-0.35c1,0 2.45,-0.31 2.69,-0.75c0,0 0.07,-0.13 -0.09,-0.29a0.59,0.59 0 0 0 -0.46,-0.19l0,0a4.23,4.23 0 0 0 -2.14,1.23z"/>
   <path id="svg_21" fill="#B0BEC5" d="m92.39,330.50084a13.25,13.25 0 0 1 -2.26,-0.21a0.16,0.16 0 0 1 -0.13,-0.16a0.18,0.18 0 0 1 0.08,-0.18c0.11,-0.06 2.67,-1.53 3.9,-1.19a0.86,0.86 0 0 1 0.55,0.4a0.66,0.66 0 0 1 0,0.76c-0.29,0.45 -1.2,0.58 -2.14,0.58zm-1.69,-0.47c1.36,0.2 3.22,0.19 3.56,-0.29c0.05,-0.06 0.09,-0.17 0,-0.38a0.56,0.56 0 0 0 -0.34,-0.25c-0.78,-0.2 -2.33,0.46 -3.22,0.92z"/>
   <path id="svg_22" fill="#B0BEC5" d="m90.17,330.30084a0.18,0.18 0 0 1 -0.1,0a0.16,0.16 0 0 1 -0.07,-0.17a4.88,4.88 0 0 1 1.14,-2.83a1.25,1.25 0 0 1 1,-0.29c0.48,0 0.62,0.29 0.65,0.48c0.13,0.83 -1.62,2.42 -2.51,2.82l-0.11,-0.01zm1.79,-3a0.91,0.91 0 0 0 -0.6,0.22a4,4 0 0 0 -1,2.27c0.9,-0.55 2.1,-1.79 2,-2.29c0,0 0,-0.17 -0.34,-0.2l-0.06,0z"/>
   <polygon id="svg_23" fill="#e4897b" points="82.08999633789062,330.1208313703537 89.44000244140625,330.1208313703537 90.16999816894531,313.1108521223068 82.82000732421875,313.1108521223068 82.08999633789062,330.1208313703537 "/>
   <polygon id="svg_24" fill="#e4897b" points="16.639999389648438,300.9208496809006 22.779998779296875,304.94083869457245 36.339996337890625,293.4908264875412 30.19000244140625,289.4608277082443 16.639999389648438,300.9208496809006 "/>
   <path id="svg_25" fill="#263238" d="m23.79,304.56084l-6.38,-5.23a0.63,0.63 0 0 0 -0.8,0l-5.26,4.13a1.08,1.08 0 0 0 0,1.69c2.26,1.79 3.45,2.55 6.26,4.85c1.73,1.41 6,5.73 8.41,7.68s4.62,-0.15 3.82,-1.16c-3.59,-4.55 -5,-8.44 -5.41,-10.85a1.81,1.81 0 0 0 -0.64,-1.11z"/>
   <path id="svg_26" fill="#263238" d="m89.39,329.27084l-8,0a0.65,0.65 0 0 0 -0.63,0.5l-1.45,6.53a1.07,1.07 0 0 0 1.06,1.31c2.89,-0.05 7.07,-0.22 10.71,-0.22c4.25,0 7.93,0.23 12.91,0.23c3,0 3.86,-3.05 2.59,-3.32c-5.74,-1.26 -10.44,-1.39 -15.4,-4.46a3.44,3.44 0 0 0 -1.79,-0.57z"/>
   <path id="svg_27" fill="#263238" d="m45.66,103.13084c-6.37,3 -10,23.1 -10,23.1l15.57,6.21a115.83,115.83 0 0 0 5.51,-17.15c2.14,-9.26 -4.56,-15.26 -11.08,-12.16z"/>
   <path id="svg_28" fill="#203048" d="m53.92,114.46084c-3.85,3.9 -5.61,11.54 -6.38,16.51l3.73,1.49a116.7,116.7 0 0 0 5.4,-16.65c-0.33,-2.12 -1.15,-2.97 -2.75,-1.35z"/>
   <path id="svg_29" fill="#263238" d="m88.14,102.99084s7.82,8.84 0.44,63.5l-39.29,0c-0.27,-6 3.52,-35.45 -2.3,-63.87a100.56,100.56 0 0 1 13.15,-1.66a140.87,140.87 0 0 1 16.7,0a74.19,74.19 0 0 1 11.3,2.03z"/>
   <path id="svg_30" fill="#203048" d="m91.73,124.21084l-6.62,-11.41a58.31,58.31 0 0 0 -1.55,16.27c0.18,3.92 3.77,18.44 7,20.56a230.84,230.84 0 0 0 1.17,-25.42z"/>
   <path id="svg_31" fill="#e4897b" d="m92.65,110.80084c1,4.86 2,9.84 3.07,14.72s2.18,9.78 3.47,14.51c0.33,1.17 0.64,2.37 1,3.49l0.27,0.86l0.13,0.43l0,-0.05c-0.07,-0.09 -0.15,-0.1 -0.09,0a3.35,3.35 0 0 0 1.52,0.95a17.84,17.84 0 0 0 2.91,0.81a77.79,77.79 0 0 0 14.3,0.93l0.95,5.44c-1.34,0.43 -2.59,0.74 -3.91,1.05s-2.62,0.57 -3.95,0.77a42.73,42.73 0 0 1 -8.33,0.56a22.61,22.61 0 0 1 -4.6,-0.6a13.39,13.39 0 0 1 -5.28,-2.45a9.65,9.65 0 0 1 -2.47,-3c-0.16,-0.3 -0.3,-0.64 -0.43,-0.93l-0.18,-0.47l-0.37,-1c-0.51,-1.27 -0.93,-2.52 -1.39,-3.77c-1.69,-5 -3.1,-10.05 -4.34,-15.09s-2.31,-10.07 -3.2,-15.24l10.92,-1.92z"/>
   <path id="svg_32" fill="#263238" d="m78.33,108.35084c-2.07,6.71 6.32,26.72 6.32,26.72l16.71,-4.2s-0.64,-10.4 -4.45,-18.65c-5.74,-12.44 -16.1,-11.92 -18.58,-3.87z"/>
   <path id="svg_33" fill="#e4897b" d="m119.09,147.45084l8.32,-0.21l-4,8.66s-3.39,0.45 -6.17,-4.12l-2.93,-3.5l3.37,-0.67a7.52,7.52 0 0 1 1.41,-0.16z"/>
   <polygon id="svg_34" fill="#e4897b" points="132.66000366210938,148.85084235668182 127.89999389648438,156.03083503246307 123.41000366210938,155.90084540843964 127.41000366210938,147.24084174633026 132.66000366210938,148.85084235668182 "/>
   <polygon id="svg_35" fill="#ce6f64" points="90.16999816894531,313.1108521223068 89.78999328613281,321.8808411359787 82.44000244140625,321.8808411359787 82.82000732421875,313.1108521223068 90.16999816894531,313.1108521223068 "/>
   <polygon id="svg_36" fill="#ce6f64" points="30.19000244140625,289.4608277082443 36.339996337890625,293.4908264875412 29.339996337890625,299.3908509016037 23.199996948242188,295.3708313703537 30.19000244140625,289.4608277082443 "/>
   <path id="svg_37" fill="#e4897b" d="m62.26,76.41084c0.44,7.27 0.33,11.56 4,15.29c5.52,5.63 14.51,2.3 16.25,-5c1.57,-6.54 0.59,-17.34 -6.53,-20.24a10,10 0 0 0 -13.72,9.95z"/>
   <path id="svg_38" fill="#263238" d="m53.7,75.13084c1.81,6.63 6.07,14.27 11.58,14.76c6.84,0.6 9.93,-6.47 10.83,-13.77c4.1,-2.81 1.95,-5.9 6.06,-6.29c5.28,-0.5 3.59,-10.16 -3.36,-11.71c0,0 2.33,4.35 -2.56,2.15a28.22,28.22 0 0 0 -14.94,-2.59s6.24,3.12 0.14,4.51s-7.92,5.15 -5.11,7.42c0,0.01 -3.83,1.16 -2.64,5.52z"/>
   <path id="svg_39" fill="#e4897b" d="m71.94,77.62084a8.22,8.22 0 0 0 2.07,4.87c1.6,1.77 3.27,0.67 3.55,-1.48c0.26,-1.93 -0.27,-5.18 -2.23,-6.16s-3.52,0.59 -3.39,2.77z"/>
   <path id="svg_40" fill="#B0BEC5" d="m74.64,166.49084s7.16,51.85 1.52,72.63c-8.94,32.9 -43.12,60.67 -43.12,60.67l-11.59,-7.6s29.11,-23.45 32.67,-51c3.2,-24.73 -4.83,-54.64 -4.83,-74.71l25.35,0.01z"/>
   <path id="svg_41" opacity="0.1" d="m74.64,166.49084s7.16,51.85 1.52,72.63c-8.94,32.9 -43.12,60.67 -43.12,60.67l-11.59,-7.6s29.11,-23.45 32.67,-51c3.2,-24.73 -4.83,-54.64 -4.83,-74.71l25.35,0.01z"/>
   <path id="svg_42" fill="#B0BEC5" d="m77.6,196.13084a48.4,48.4 0 0 0 -6.27,-6c1.22,16.83 2.22,41.76 1.11,59.47a76.41,76.41 0 0 0 3.72,-10.47c2.75,-10.15 2.46,-27.68 1.44,-43z"/>
   <path id="svg_43" opacity="0.3" d="m77.6,196.13084a48.4,48.4 0 0 0 -6.27,-6c1.22,16.83 2.22,41.76 1.11,59.47a76.41,76.41 0 0 0 3.72,-10.47c2.75,-10.15 2.46,-27.68 1.44,-43z"/>
   <path id="svg_44" fill="#B0BEC5" d="m37.71,297.20084c0.05,0 -4.49,3 -4.49,3l-12.66,-8.3l4,-3.31l13.15,8.61z"/>
   <path id="svg_45" opacity="0.3" d="m37.71,297.20084c0.05,0 -4.49,3 -4.49,3l-12.66,-8.3l4,-3.31l13.15,8.61z"/>
   <path id="svg_46" fill="#B0BEC5" d="m88.58,166.49084s11.06,46.9 11.84,69.31c0.88,25.12 -7.89,84.38 -7.89,84.38l-12.45,0s-1.53,-59.72 -2.08,-82.6c-0.61,-24.95 -15.25,-71.09 -15.25,-71.09l25.83,0z"/>
   <path id="svg_47" opacity="0.1" d="m88.58,166.49084s11.06,46.9 11.84,69.31c0.88,25.12 -7.89,84.38 -7.89,84.38l-12.45,0s-1.53,-59.72 -2.08,-82.6c-0.61,-24.95 -15.25,-71.09 -15.25,-71.09l25.83,0z"/>
   <path id="svg_48" fill="#B0BEC5" d="m94.92,315.23084c0.06,0 -0.7,5.16 -0.7,5.16l-15.14,0l-0.41,-4.61l16.25,-0.55z"/>
   <path id="svg_49" opacity="0.3" d="m94.92,315.23084c0.06,0 -0.7,5.16 -0.7,5.16l-15.14,0l-0.41,-4.61l16.25,-0.55z"/>
  </g>
  <g id="freepik--character--inject-8">
   <path id="svg_50" fill="#e4897b" d="m280,121.42084c0.85,0.8 1.52,1.48 2.22,2.24s1.36,1.5 2,2.27c1.3,1.53 2.52,3.14 3.7,4.76a76.27,76.27 0 0 1 6.27,10.26l0.37,0.73a7.05,7.05 0 0 1 0.45,1.1a9.12,9.12 0 0 1 0.44,2.26a11,11 0 0 1 -0.55,4a20.16,20.16 0 0 1 -3.21,5.92a42.68,42.68 0 0 1 -8.8,8.46l-2.49,-2.86c1.17,-1.37 2.39,-2.84 3.48,-4.31a36.76,36.76 0 0 0 3,-4.5a15.63,15.63 0 0 0 1.82,-4.42a4.58,4.58 0 0 0 0.07,-1.7a2.22,2.22 0 0 0 -0.18,-0.55a1.59,1.59 0 0 0 -0.13,-0.22l-0.32,-0.54a105.06,105.06 0 0 0 -6.27,-9.11c-1.11,-1.47 -2.3,-2.88 -3.5,-4.27c-0.59,-0.7 -1.2,-1.38 -1.81,-2.06s-1.27,-1.36 -1.8,-1.89l5.24,-5.57z"/>
   <path id="svg_51" fill="#e4897b" d="m281.36,159.72084l-7.47,-1.22l3.91,6.54s4.81,-0.17 6.18,-3l-2.62,-2.32z"/>
   <polygon id="svg_52" fill="#e4897b" points="268.3699951171875,161.52084052562714 271.92999267578125,166.8308380842209 277.79998779296875,165.04084479808807 273.8900146484375,158.5008362531662 268.3699951171875,161.52084052562714 "/>
   <path id="svg_53" fill="#B0BEC5" d="m281,330.41084a2.15,2.15 0 0 1 -1.43,-0.39a1,1 0 0 1 -0.29,-0.94a0.59,0.59 0 0 1 0.35,-0.5c0.87,-0.39 3.15,1.07 3.41,1.24a0.16,0.16 0 0 1 0.07,0.18a0.16,0.16 0 0 1 -0.13,0.14a8.85,8.85 0 0 1 -1.98,0.27zm-1,-1.55a0.72,0.72 0 0 0 -0.22,0a0.26,0.26 0 0 0 -0.15,0.23a0.67,0.67 0 0 0 0.18,0.63c0.38,0.34 1.36,0.39 2.67,0.13a6.59,6.59 0 0 0 -2.48,-0.99z"/>
   <path id="svg_54" fill="#B0BEC5" d="m283,330.13084l-0.09,0c-0.71,-0.41 -2.08,-2 -1.91,-2.87a0.65,0.65 0 0 1 0.6,-0.5a0.9,0.9 0 0 1 0.75,0.24c0.82,0.72 0.83,2.88 0.83,3a0.19,0.19 0 0 1 -0.09,0.15l-0.09,-0.02zm-1.28,-3l-0.08,0c-0.22,0 -0.27,0.12 -0.29,0.21c-0.1,0.51 0.75,1.73 1.46,2.3a4.09,4.09 0 0 0 -0.69,-2.36a0.57,0.57 0 0 0 -0.45,-0.15l0.05,0z"/>
   <path id="svg_55" fill="#B0BEC5" d="m246.92,330.41084a2.77,2.77 0 0 1 -1.81,-0.46a1,1 0 0 1 -0.33,-0.86a0.58,0.58 0 0 1 0.3,-0.47c0.93,-0.52 3.91,1 4.25,1.19a0.2,0.2 0 0 1 0.09,0.19a0.17,0.17 0 0 1 -0.14,0.14a12.47,12.47 0 0 1 -2.36,0.27zm-1.33,-1.55a0.62,0.62 0 0 0 -0.33,0.07a0.21,0.21 0 0 0 -0.12,0.19a0.65,0.65 0 0 0 0.2,0.57c0.46,0.41 1.69,0.48 3.35,0.2a9.73,9.73 0 0 0 -3.1,-1.03z"/>
   <path id="svg_56" fill="#B0BEC5" d="m249.25,330.13084l-0.08,0c-0.89,-0.4 -2.66,-2 -2.52,-2.87c0,-0.2 0.18,-0.45 0.67,-0.5a1.32,1.32 0 0 1 1,0.31c0.94,0.78 1.12,2.8 1.12,2.89a0.17,0.17 0 0 1 -0.07,0.16a0.19,0.19 0 0 1 -0.12,0.01zm-1.79,-3l-0.11,0c-0.32,0 -0.34,0.16 -0.35,0.2c-0.08,0.51 1.12,1.78 2,2.33a4.16,4.16 0 0 0 -1,-2.31a0.93,0.93 0 0 0 -0.54,-0.22z"/>
   <path id="svg_57" fill="#e4897b" d="m261.07,98.43084c-0.29,4.52 -1.07,13.7 2.4,16.24c0,0 -0.63,4.63 -8.82,5.71c-9,1.17 -4.89,-3.91 -4.89,-3.91c4.77,-1.82 4.16,-5.45 2.86,-8.77l8.45,-9.27z"/>
   <path id="svg_58" fill="#263238" d="m242.44,90.44084a0.34,0.34 0 0 1 -0.26,-0.12a2.83,2.83 0 0 0 -2.35,-1a0.35,0.35 0 0 1 -0.41,-0.3a0.36,0.36 0 0 1 0.31,-0.4a3.51,3.51 0 0 1 3,1.26a0.36,0.36 0 0 1 -0.27,0.59l-0.02,-0.03z"/>
   <path id="svg_59" fill="#de5753" d="m240.88,94.87084a16.28,16.28 0 0 1 -1.63,4.1a2.58,2.58 0 0 0 2.19,0.12l-0.56,-4.22z"/>
   <path id="svg_60" fill="#263238" d="m241.28,93.77084c0.08,0.6 -0.17,1.12 -0.56,1.18s-0.78,-0.4 -0.85,-1s0.17,-1.12 0.56,-1.17s0.78,0.35 0.85,0.99z"/>
   <path id="svg_61" fill="#263238" d="m240.61,92.79084l-1.49,-0.23s0.88,1.03 1.49,0.23z"/>
   <polygon id="svg_62" fill="#e4897b" points="257.489990234375,329.9708374738693 249.989990234375,329.9708374738693 249.489990234375,312.6208313703537 256.989990234375,312.6208313703537 257.489990234375,329.9708374738693 "/>
   <polygon id="svg_63" fill="#e4897b" points="291.5400085449219,329.9708374738693 284.0400085449219,329.9708374738693 281.6300048828125,312.6208313703537 289.1300048828125,312.6208313703537 291.5400085449219,329.9708374738693 "/>
   <path id="svg_64" fill="#263238" d="m283.58,329.13084l8.42,0a0.59,0.59 0 0 1 0.59,0.51l1,6.67a1.2,1.2 0 0 1 -1.2,1.33c-2.93,-0.05 -4.35,-0.22 -8.05,-0.22c-2.28,0 -5.61,0.23 -8.75,0.23s-3.31,-3.11 -2,-3.39c5.87,-1.26 6.8,-3 8.77,-4.67a2,2 0 0 1 1.22,-0.46z"/>
   <path id="svg_65" fill="#263238" d="m249.74,329.13084l8.41,0a0.6,0.6 0 0 1 0.6,0.51l1,6.67a1.2,1.2 0 0 1 -1.2,1.33c-2.93,-0.05 -4.35,-0.22 -8.05,-0.22c-2.28,0 -7,0.23 -10.14,0.23s-3.31,-3.11 -2,-3.39c5.87,-1.26 8.18,-3 10.16,-4.67a2,2 0 0 1 1.22,-0.46z"/>
   <polygon id="svg_66" fill="#ce6f64" points="249.489990234375,312.6208313703537 249.75,321.57084357738495 257.25,321.57084357738495 256.989990234375,312.6208313703537 249.489990234375,312.6208313703537 "/>
   <polygon id="svg_67" fill="#ce6f64" points="289.1300048828125,312.6208313703537 281.6300048828125,312.6208313703537 282.8800048828125,321.57084357738495 290.3699951171875,321.57084357738495 289.1300048828125,312.6208313703537 "/>
   <path id="svg_68" fill="#e4897b" d="m261.17,89.07084c0.51,7.42 0.88,10.55 -2.34,14.82c-4.85,6.41 -14.07,5.42 -16.79,-1.7c-2.45,-6.41 -2.87,-17.46 3.95,-21.34a10.15,10.15 0 0 1 15.18,8.22z"/>
   <path id="svg_69" fill="#263238" d="m265.49,95.96084c4.16,2.32 7.25,-3.4 7.25,-3.4s-7.46,0.81 -6.79,-3.63c0.88,-5.89 -3.34,-13.05 -13.92,-12.13c-0.59,0.05 -1.15,0.12 -1.7,0.21a5.44,5.44 0 0 0 -6.58,1.52c-3,0.25 -7.05,3.83 -4.3,8.56a4.35,4.35 0 0 1 0.88,-1.47c0.23,2.77 2.65,7.17 5.67,7.46c0.65,3.79 -1.87,8.18 -1,12.14c1.29,5.71 10.92,7 10.92,7a4.17,4.17 0 0 1 0.56,-4.41c6.54,3 10.85,0.07 10.85,0.07c-4.46,-1.66 -3.11,-4.62 -3.11,-4.62a6.51,6.51 0 0 0 8.49,-3.09a7.68,7.68 0 0 1 -7.22,-4.21z"/>
   <path id="svg_70" fill="#e4897b" d="m248.61,94.22084a5.4,5.4 0 0 1 -1.5,3.87c-1.32,1.37 -2.94,0.41 -3.38,-1.34c-0.39,-1.58 -0.17,-4.19 1.55,-4.91a2.44,2.44 0 0 1 3.33,2.38z"/>
   <path id="svg_71" fill="#263238" d="m254.84,163.35084s1.9,49.36 6.42,78.34c3.64,23.42 19.81,78.14 19.81,78.14l10.22,0s-8.43,-52.85 -10.28,-76c-4.68,-58.59 7.47,-71.17 -4,-83.37l-22.17,2.89z"/>
   <path id="svg_72" fill="#161f33" d="m263.38,178.96084s-4.62,-0.8 -7.32,8c1,16.67 2.71,38.79 5.2,54.73c0.55,3.55 1.39,7.83 2.42,12.52c-1.95,-28.16 -0.3,-75.25 -0.3,-75.25z"/>
   <path id="svg_73" fill="#263238" d="m246.87,164.39084s-8.42,54.61 -7.93,77.46c0.51,23.77 9.22,78 9.22,78l10.13,0s-1.6,-52.82 -0.71,-76.16c1,-25.45 11.39,-82.17 11.39,-82.17l-22.1,2.87z"/>
   <polygon id="svg_74" fill="#B0BEC5" points="292.7699890136719,320.31083381175995 279.17999267578125,320.31083381175995 278.1199951171875,315.7508362531662 292.6700134277344,315.8508423566818 292.7699890136719,320.31083381175995 "/>
   <polygon id="svg_75" opacity="0.2" points="292.7699890136719,320.31083381175995 279.17999267578125,320.31083381175995 278.1199951171875,315.7508362531662 292.6700134277344,315.8508423566818 292.7699890136719,320.31083381175995 "/>
   <path id="svg_76" fill="#B0BEC5" d="m276.5,114.68084c3.91,0.38 9.85,11.49 9.85,11.49l-9.87,7.57s-8.17,-7.17 -7.2,-11.2c1.01,-4.19 3.47,-8.21 7.22,-7.86z"/>
   <path id="svg_77" opacity="0.1" d="m276.5,114.68084c3.91,0.38 9.85,11.49 9.85,11.49l-9.87,7.57s-8.17,-7.17 -7.2,-11.2c1.01,-4.19 3.47,-8.21 7.22,-7.86z"/>
   <path id="svg_78" fill="#B0BEC5" d="m273.55,119.46084a10.13,10.13 0 0 0 -3.06,-0.34a16.91,16.91 0 0 0 -1.21,3.42c-1,4 7.2,11.2 7.2,11.2l0.73,-0.56l-3.66,-13.72z"/>
   <path id="svg_79" opacity="0.3" d="m273.55,119.46084a10.13,10.13 0 0 0 -3.06,-0.34a16.91,16.91 0 0 0 -1.21,3.42c-1,4 7.2,11.2 7.2,11.2l0.73,-0.56l-3.66,-13.72z"/>
   <path id="svg_80" fill="#e4897b" d="m243.52,130.13084c-2.85,7.21 -5.85,14.54 -8.24,21.77c-0.16,0.46 -0.29,0.9 -0.43,1.35l-0.34,1.11a1.83,1.83 0 0 0 0,1a7.52,7.52 0 0 0 2.59,3.1a42.19,42.19 0 0 0 9.69,5.19l-0.9,3.68a34.69,34.69 0 0 1 -12.08,-3.94a12.93,12.93 0 0 1 -5.39,-5.46a8.37,8.37 0 0 1 -0.69,-4.76a5.58,5.58 0 0 1 0.1,-0.59l0.1,-0.42l0.17,-0.76c0.12,-0.51 0.24,-1 0.37,-1.5c1,-4 2.28,-7.8 3.63,-11.57s2.76,-7.49 4.35,-11.2l7.07,3z"/>
   <path id="svg_81" fill="#B0BEC5" d="m237.45,120.01084s-3.38,1.71 9.42,44.38l30.18,-3.94c-2.12,-12.22 -3.12,-19.79 -0.55,-45.77a91,91 0 0 0 -13,0a95.5,95.5 0 0 0 -13.71,1.8c-5.79,1.29 -12.34,3.53 -12.34,3.53z"/>
   <path id="svg_82" opacity="0.1" d="m237.45,120.01084s-3.38,1.71 9.42,44.38l30.18,-3.94c-2.12,-12.22 -3.12,-19.79 -0.55,-45.77a91,91 0 0 0 -13,0a95.5,95.5 0 0 0 -13.71,1.8c-5.79,1.29 -12.34,3.53 -12.34,3.53z"/>
   <path id="svg_83" fill="#B0BEC5" d="m277.27,158.62084l1.73,2.51c0.13,0.2 -0.09,0.44 -0.43,0.49l-31.65,4.14c-0.27,0 -0.52,-0.07 -0.56,-0.24l-0.62,-2.67c-0.05,-0.18 0.17,-0.37 0.47,-0.41l30.56,-4a0.55,0.55 0 0 1 0.5,0.18z"/>
   <path id="svg_84" opacity="0.2" d="m277.27,158.62084l1.73,2.51c0.13,0.2 -0.09,0.44 -0.43,0.49l-31.65,4.14c-0.27,0 -0.52,-0.07 -0.56,-0.24l-0.62,-2.67c-0.05,-0.18 0.17,-0.37 0.47,-0.41l30.56,-4a0.55,0.55 0 0 1 0.5,0.18z"/>
   <path id="svg_85" fill="#263238" d="m273.61,162.57084l0.82,-0.11c0.16,0 0.27,-0.12 0.25,-0.22l-0.84,-3.46a0.29,0.29 0 0 0 -0.34,-0.14l-0.82,0.1c-0.17,0 -0.28,0.12 -0.25,0.23l0.84,3.45c0.02,0.11 0.18,0.17 0.34,0.15z"/>
   <path id="svg_86" fill="#263238" d="m253.77,165.13084l0.82,-0.11c0.16,0 0.28,-0.12 0.25,-0.22l-0.84,-3.46a0.31,0.31 0 0 0 -0.34,-0.15l-0.82,0.11c-0.16,0 -0.28,0.12 -0.25,0.22l0.84,3.46c0.02,0.15 0.18,0.21 0.34,0.15z"/>
   <path id="svg_87" fill="#B0BEC5" d="m238.86,134.49084c0.83,3.86 2,8.75 3.71,14.94l0.37,-15.69l-4.08,0.75z"/>
   <path id="svg_88" opacity="0.3" d="m238.86,134.49084c0.83,3.86 2,8.75 3.71,14.94l0.37,-15.69l-4.08,0.75z"/>
   <path id="svg_89" fill="#B0BEC5" d="m237.45,120.01084c-3.75,1.51 -7,14.34 -7,14.34l12.9,6.28s6.23,-15.69 3.44,-18.75s-5.02,-3.6 -9.34,-1.87z"/>
   <path id="svg_90" opacity="0.1" d="m237.45,120.01084c-3.75,1.51 -7,14.34 -7,14.34l12.9,6.28s6.23,-15.69 3.44,-18.75s-5.02,-3.6 -9.34,-1.87z"/>
   <polygon id="svg_91" fill="#B0BEC5" points="260.0199890136719,320.31083381175995 246.42999267578125,320.31083381175995 245.3699951171875,315.7508362531662 260.5,315.8508423566818 260.0199890136719,320.31083381175995 "/>
   <polygon id="svg_92" opacity="0.2" points="260.0199890136719,320.31083381175995 246.42999267578125,320.31083381175995 245.3699951171875,315.7508362531662 260.5,315.8508423566818 260.0199890136719,320.31083381175995 "/>
   <path id="svg_93" fill="#e4897b" d="m247,162.41084l-1.09,-0.45a1.64,1.64 0 0 0 -2.24,1.76l0.79,5.21a1.78,1.78 0 0 0 2.36,1.42a4,4 0 0 0 1.1,-0.61a3,3 0 0 0 1.08,-2.48l-0.11,-2.16a3,3 0 0 0 -1.89,-2.69z"/>
  </g>
 </g>
</svg>