<svg id="visual" viewBox="0 0 1000 1000" width="1000" height="1000" xmlns="http://www.w3.org/2000/svg" xmlns:xlink="http://www.w3.org/1999/xlink" version="1.1"><path d="M92 0L85.8 27.8C79.7 55.7 67.3 111.3 73 166.8C78.7 222.3 102.3 277.7 116.7 333.2C131 388.7 136 444.3 122.8 500C109.7 555.7 78.3 611.3 73.3 666.8C68.3 722.3 89.7 777.7 102.2 833.2C114.7 888.7 118.3 944.3 120.2 972.2L122 1000L0 1000L0 972.2C0 944.3 0 888.7 0 833.2C0 777.7 0 722.3 0 666.8C0 611.3 0 555.7 0 500C0 444.3 0 388.7 0 333.2C0 277.7 0 222.3 0 166.8C0 111.3 0 55.7 0 27.8L0 0Z" fill="#FFFFFF" stroke-linecap="round" stroke-linejoin="miter"></path></svg>